<?xml version="1.0"?>
<!-- Generated by SVGo -->
<svg width="170.121mm" height="95.727mm"
     viewBox="0.000 0.000 170.121 95.727"
     xmlns="http://www.w3.org/2000/svg" 
     xmlns:xlink="http://www.w3.org/1999/xlink">
<polygon points="165.045,90.651 5.000,90.651 5.000,9.838 165.045,9.838" style="fill:none;stroke-width:0.050000mm;stroke:black"/>
<polygon points="69.287,74.126 69.287,88.275 83.437,88.275 83.437,74.126" style="fill:none;stroke-width:0.050000mm;stroke:black"/>
<polygon points="107.986,69.165 111.649,82.834 125.317,79.171 121.654,65.504" style="fill:none;stroke-width:0.050000mm;stroke:black"/>
<polygon points="126.387,64.236 130.050,77.903 143.717,74.240 140.055,60.573" style="fill:none;stroke-width:0.050000mm;stroke:black"/>
<polygon points="144.788,59.305 148.450,72.972 162.118,69.309 158.456,55.642" style="fill:none;stroke-width:0.050000mm;stroke:black"/>
<polygon points="121.457,45.835 125.119,59.502 138.787,55.840 135.125,42.171" style="fill:none;stroke-width:0.050000mm;stroke:black"/>
<polygon points="50.232,47.665 63.900,51.328 67.562,37.659 53.894,33.998" style="fill:none;stroke-width:0.050000mm;stroke:black"/>
<polygon points="31.831,42.734 45.499,46.397 49.161,32.730 35.493,29.067" style="fill:none;stroke-width:0.050000mm;stroke:black"/>
<polygon points="13.430,37.805 27.098,41.466 30.760,27.799 17.092,24.136" style="fill:none;stroke-width:0.050000mm;stroke:black"/>
<polygon points="126.437,16.976 126.437,31.125 140.587,31.125 140.587,16.976" style="fill:none;stroke-width:0.050000mm;stroke:black"/>
<polygon points="107.387,16.976 107.387,31.125 121.537,31.125 121.537,16.976" style="fill:none;stroke-width:0.050000mm;stroke:black"/>
<polygon points="78.812,16.976 78.812,31.125 92.962,31.125 92.962,16.976" style="fill:none;stroke-width:0.050000mm;stroke:black"/>
</svg>
