  0
SECTION
  2
HEADER
  9
$ACADVER
  1
AC1009
  9
$EXTMIN
 10
0.0
 20
0.0
 30
0.0
  9
$EXTMAX
 10
1000.0
 20
1000.0
 30
0.0
  9
$FILLMODE
 70
 0
  9
$SPLFRAME
 70
 1
  0
ENDSEC
  0
SECTION
  2
TABLES
  0
TABLE
  2
LAYER
 70
1
  0
LAYER
  2
0
 70
     0
 62
     7
  6
CONTINUOUS
  0
ENDTAB
  0
ENDSEC
  0
SECTION
  2
ENTITIES
  0
LINE
  8
0
 62
     0
 10
0.0950846
 20
81.0436
 30
0.0
 11
160.139
 21
81.0436
 31
0.0
  0
LINE
  8
0
 62
     0
 10
160.139
 20
81.0436
 30
0.0
 11
160.139
 21
0.23151
 31
0.0
  0
LINE
  8
0
 62
     0
 10
160.139
 20
0.23151
 30
0.0
 11
0.0950846
 21
0.23151
 31
0.0
  0
LINE
  8
0
 62
     0
 10
0.0950846
 20
0.23151
 30
0.0
 11
0.0950846
 21
81.0436
 31
0.0
  0
LINE
  8
0
 62
     0
 10
64.3819
 20
16.7569
 30
0.0
 11
78.5315
 21
16.7569
 31
0.0
  0
LINE
  8
0
 62
     0
 10
78.5315
 20
16.7569
 30
0.0
 11
78.5315
 21
2.60725
 31
0.0
  0
LINE
  8
0
 62
     0
 10
78.5315
 20
2.60725
 30
0.0
 11
64.3819
 21
2.60725
 31
0.0
  0
LINE
  8
0
 62
     0
 10
64.3819
 20
2.60725
 30
0.0
 11
64.3819
 21
16.7569
 31
0.0
  0
LINE
  8
0
 62
     0
 10
103.08
 20
21.7179
 30
0.0
 11
106.743
 21
8.04774
 31
0.0
  0
LINE
  8
0
 62
     0
 10
106.743
 20
8.04774
 30
0.0
 11
120.412
 21
11.7119
 31
0.0
  0
LINE
  8
0
 62
     0
 10
120.412
 20
11.7119
 30
0.0
 11
116.749
 21
25.378
 31
0.0
  0
LINE
  8
0
 62
     0
 10
116.749
 20
25.378
 30
0.0
 11
103.08
 21
21.7179
 31
0.0
  0
LINE
  8
0
 62
     0
 10
121.481
 20
26.6458
 30
0.0
 11
125.145
 21
12.9798
 31
0.0
  0
LINE
  8
0
 62
     0
 10
125.145
 20
12.9798
 30
0.0
 11
138.811
 21
16.6426
 31
0.0
  0
LINE
  8
0
 62
     0
 10
138.811
 20
16.6426
 30
0.0
 11
135.15
 21
30.31
 31
0.0
  0
LINE
  8
0
 62
     0
 10
135.15
 20
30.31
 30
0.0
 11
121.481
 21
26.6458
 31
0.0
  0
LINE
  8
0
 62
     0
 10
139.882
 20
31.5777
 30
0.0
 11
143.545
 21
17.9104
 31
0.0
  0
LINE
  8
0
 62
     0
 10
143.545
 20
17.9104
 30
0.0
 11
157.212
 21
21.5732
 31
0.0
  0
LINE
  8
0
 62
     0
 10
157.212
 20
21.5732
 30
0.0
 11
153.551
 21
35.2406
 31
0.0
  0
LINE
  8
0
 62
     0
 10
153.551
 20
35.2406
 30
0.0
 11
139.882
 21
31.5777
 31
0.0
  0
LINE
  8
0
 62
     0
 10
116.552
 20
45.048
 30
0.0
 11
120.213
 21
31.3807
 31
0.0
  0
LINE
  8
0
 62
     0
 10
120.213
 20
31.3807
 30
0.0
 11
133.882
 21
35.0421
 31
0.0
  0
LINE
  8
0
 62
     0
 10
133.882
 20
35.0421
 30
0.0
 11
130.219
 21
48.7109
 31
0.0
  0
LINE
  8
0
 62
     0
 10
130.219
 20
48.7109
 30
0.0
 11
116.552
 21
45.048
 31
0.0
  0
LINE
  8
0
 62
     0
 10
45.3263
 20
43.2181
 30
0.0
 11
58.994
 21
39.5538
 31
0.0
  0
LINE
  8
0
 62
     0
 10
58.994
 20
39.5538
 30
0.0
 11
62.6565
 21
53.2239
 31
0.0
  0
LINE
  8
0
 62
     0
 10
62.6565
 20
53.2239
 30
0.0
 11
48.9878
 21
56.884
 31
0.0
  0
LINE
  8
0
 62
     0
 10
48.9878
 20
56.884
 30
0.0
 11
45.3263
 21
43.2181
 31
0.0
  0
LINE
  8
0
 62
     0
 10
26.9255
 20
48.1485
 30
0.0
 11
40.5927
 21
44.486
 31
0.0
  0
LINE
  8
0
 62
     0
 10
40.5927
 20
44.486
 30
0.0
 11
44.2556
 21
58.1519
 31
0.0
  0
LINE
  8
0
 62
     0
 10
44.2556
 20
58.1519
 30
0.0
 11
30.5869
 21
61.8162
 31
0.0
  0
LINE
  8
0
 62
     0
 10
30.5869
 20
61.8162
 30
0.0
 11
26.9255
 21
48.1485
 31
0.0
  0
LINE
  8
0
 62
     0
 10
8.52456
 20
53.0779
 30
0.0
 11
22.1919
 21
49.4164
 31
0.0
  0
LINE
  8
0
 62
     0
 10
22.1919
 20
49.4164
 30
0.0
 11
25.8548
 21
63.0837
 31
0.0
  0
LINE
  8
0
 62
     0
 10
25.8548
 20
63.0837
 30
0.0
 11
12.186
 21
66.7466
 31
0.0
  0
LINE
  8
0
 62
     0
 10
12.186
 20
66.7466
 30
0.0
 11
8.52456
 21
53.0779
 31
0.0
  0
LINE
  8
0
 62
     0
 10
121.532
 20
73.9069
 30
0.0
 11
135.682
 21
73.9069
 31
0.0
  0
LINE
  8
0
 62
     0
 10
135.682
 20
73.9069
 30
0.0
 11
135.682
 21
59.7574
 31
0.0
  0
LINE
  8
0
 62
     0
 10
135.682
 20
59.7574
 30
0.0
 11
121.532
 21
59.7574
 31
0.0
  0
LINE
  8
0
 62
     0
 10
121.532
 20
59.7574
 30
0.0
 11
121.532
 21
73.9069
 31
0.0
  0
LINE
  8
0
 62
     0
 10
102.482
 20
73.9069
 30
0.0
 11
116.632
 21
73.9069
 31
0.0
  0
LINE
  8
0
 62
     0
 10
116.632
 20
73.9069
 30
0.0
 11
116.632
 21
59.7574
 31
0.0
  0
LINE
  8
0
 62
     0
 10
116.632
 20
59.7574
 30
0.0
 11
102.482
 21
59.7574
 31
0.0
  0
LINE
  8
0
 62
     0
 10
102.482
 20
59.7574
 30
0.0
 11
102.482
 21
73.9069
 31
0.0
  0
LINE
  8
0
 62
     0
 10
73.9069
 20
73.9069
 30
0.0
 11
88.0565
 21
73.9069
 31
0.0
  0
LINE
  8
0
 62
     0
 10
88.0565
 20
73.9069
 30
0.0
 11
88.0565
 21
59.7574
 31
0.0
  0
LINE
  8
0
 62
     0
 10
88.0565
 20
59.7574
 30
0.0
 11
73.9069
 21
59.7574
 31
0.0
  0
LINE
  8
0
 62
     0
 10
73.9069
 20
59.7574
 30
0.0
 11
73.9069
 21
73.9069
 31
0.0
  0
ENDSEC
  0
EOF
