%TF.GenerationSoftware,KiCad,Pcbnew,(5.1.10-1-10_14)*%
%TF.CreationDate,2021-06-08T08:47:03+02:00*%
%TF.ProjectId,project,70726f6a-6563-4742-9e6b-696361645f70,rev?*%
%TF.SameCoordinates,Original*%
%TF.FileFunction,Copper,L2,Bot*%
%TF.FilePolarity,Positive*%
%FSLAX46Y46*%
G04 Gerber Fmt 4.6, Leading zero omitted, Abs format (unit mm)*
G04 Created by KiCad (PCBNEW (5.1.10-1-10_14)) date 2021-06-08 08:47:03*
%MOMM*%
%LPD*%
G01*
G04 APERTURE LIST*
%TA.AperFunction,EtchedComponent*%
%ADD10C,0.010000*%
%TD*%
%TA.AperFunction,ComponentPad*%
%ADD11C,1.752600*%
%TD*%
%TA.AperFunction,ComponentPad*%
%ADD12R,1.752600X1.752600*%
%TD*%
%TA.AperFunction,ComponentPad*%
%ADD13C,2.286000*%
%TD*%
%TA.AperFunction,ComponentPad*%
%ADD14O,1.700000X1.700000*%
%TD*%
%TA.AperFunction,ComponentPad*%
%ADD15R,1.700000X1.700000*%
%TD*%
%TA.AperFunction,Conductor*%
%ADD16C,0.250000*%
%TD*%
G04 APERTURE END LIST*
D10*
%TO.C,*%
G36*
X124377485Y-79828495D02*
G01*
X123690322Y-79932561D01*
X123008448Y-80120678D01*
X122331404Y-80392977D01*
X121658736Y-80749589D01*
X120989985Y-81190646D01*
X120870019Y-81278993D01*
X120685877Y-81425888D01*
X120473282Y-81610341D01*
X120244366Y-81820315D01*
X120011260Y-82043777D01*
X119786098Y-82268689D01*
X119581011Y-82483018D01*
X119408131Y-82674726D01*
X119279591Y-82831780D01*
X119224375Y-82911527D01*
X119145648Y-83046180D01*
X119102661Y-83146507D01*
X119087740Y-83246736D01*
X119093212Y-83381098D01*
X119100497Y-83464140D01*
X119127162Y-83668653D01*
X119168985Y-83900062D01*
X119211084Y-84084583D01*
X119262708Y-84288772D01*
X119288450Y-84426786D01*
X119284321Y-84514236D01*
X119246332Y-84566735D01*
X119170491Y-84599894D01*
X119073083Y-84624583D01*
X118843944Y-84696935D01*
X118590869Y-84806751D01*
X118343752Y-84938718D01*
X118132484Y-85077524D01*
X118039052Y-85154302D01*
X117901624Y-85316066D01*
X117848370Y-85471222D01*
X117879166Y-85621090D01*
X117983279Y-85757017D01*
X118065681Y-85854269D01*
X118072479Y-85916153D01*
X118067946Y-85921571D01*
X118035904Y-86000609D01*
X118027841Y-86124960D01*
X118042076Y-86259252D01*
X118076926Y-86368112D01*
X118090180Y-86389258D01*
X118138274Y-86463307D01*
X118152333Y-86499835D01*
X118113513Y-86516812D01*
X118010680Y-86536142D01*
X117864273Y-86554175D01*
X117829311Y-86557510D01*
X117551509Y-86599952D01*
X117257149Y-86674531D01*
X116965527Y-86773647D01*
X116695942Y-86889702D01*
X116467690Y-87015094D01*
X116300070Y-87142226D01*
X116272365Y-87170645D01*
X116216411Y-87288691D01*
X116218462Y-87457541D01*
X116279020Y-87680344D01*
X116397595Y-87958192D01*
X116579849Y-88264210D01*
X116821302Y-88563045D01*
X117100800Y-88833007D01*
X117397190Y-89052404D01*
X117548026Y-89137833D01*
X117699908Y-89210172D01*
X117828576Y-89264218D01*
X117910969Y-89290473D01*
X117921268Y-89291583D01*
X117995124Y-89267203D01*
X118098717Y-89206179D01*
X118135143Y-89179846D01*
X118226765Y-89115588D01*
X118286225Y-89084413D01*
X118295918Y-89084596D01*
X118324179Y-89130658D01*
X118361760Y-89200079D01*
X118493743Y-89392953D01*
X118670190Y-89566551D01*
X118871266Y-89707400D01*
X119077135Y-89802031D01*
X119267962Y-89836974D01*
X119298102Y-89835965D01*
X119439487Y-89845280D01*
X119549529Y-89907603D01*
X119567793Y-89924040D01*
X119626059Y-89972868D01*
X119686594Y-90000266D01*
X119771924Y-90009785D01*
X119904574Y-90004978D01*
X120024467Y-89996041D01*
X120227670Y-89975022D01*
X120434098Y-89945819D01*
X120601604Y-89914462D01*
X120612388Y-89911963D01*
X120748345Y-89882447D01*
X120826537Y-89876884D01*
X120870917Y-89897075D01*
X120898497Y-89933503D01*
X120971209Y-89997019D01*
X121024797Y-90011250D01*
X121104337Y-90039234D01*
X121187308Y-90103526D01*
X121238644Y-90174630D01*
X121242666Y-90194500D01*
X121208597Y-90220397D01*
X121184876Y-90222916D01*
X121114982Y-90247530D01*
X121019710Y-90307821D01*
X121006244Y-90318166D01*
X120896659Y-90383506D01*
X120740793Y-90452425D01*
X120571586Y-90512728D01*
X120421976Y-90552221D01*
X120350462Y-90560960D01*
X120264280Y-90596259D01*
X120176228Y-90680173D01*
X120113680Y-90781861D01*
X120099666Y-90843500D01*
X120069692Y-90934846D01*
X120010732Y-91009946D01*
X119962183Y-91065750D01*
X119938193Y-91136914D01*
X119933676Y-91248813D01*
X119939427Y-91365757D01*
X119931683Y-91609486D01*
X119873905Y-91788902D01*
X119767129Y-91901759D01*
X119675797Y-91937534D01*
X119517639Y-91999468D01*
X119399336Y-92097909D01*
X119340566Y-92214835D01*
X119337457Y-92247406D01*
X119351702Y-92355677D01*
X119387911Y-92497318D01*
X119408233Y-92558811D01*
X119479218Y-92756872D01*
X119238630Y-93045644D01*
X119086852Y-93224322D01*
X118914637Y-93421830D01*
X118757765Y-93597162D01*
X118749313Y-93606419D01*
X118500584Y-93878421D01*
X117575042Y-93722338D01*
X117299900Y-93676685D01*
X117048287Y-93636347D01*
X116833793Y-93603387D01*
X116670006Y-93579872D01*
X116570514Y-93567867D01*
X116551517Y-93566752D01*
X116453514Y-93532813D01*
X116349651Y-93443668D01*
X116343870Y-93436922D01*
X116234206Y-93306593D01*
X115256519Y-93320505D01*
X114278833Y-93334417D01*
X114009426Y-93154500D01*
X113818372Y-93038553D01*
X113672184Y-92982439D01*
X113555923Y-92986061D01*
X113454651Y-93049319D01*
X113368932Y-93150268D01*
X113295758Y-93260499D01*
X113249745Y-93347544D01*
X113241666Y-93376306D01*
X113207274Y-93429806D01*
X113141044Y-93472506D01*
X113047620Y-93528609D01*
X112931370Y-93615631D01*
X112887044Y-93653020D01*
X112782404Y-93763244D01*
X112738215Y-93866725D01*
X112733666Y-93923002D01*
X112747706Y-94032686D01*
X112781367Y-94106017D01*
X112812248Y-94189477D01*
X112779662Y-94293357D01*
X112693277Y-94395416D01*
X112638110Y-94435643D01*
X112537753Y-94518610D01*
X112494473Y-94624451D01*
X112487694Y-94679060D01*
X112467152Y-94789573D01*
X112423767Y-94834021D01*
X112399006Y-94837250D01*
X112297315Y-94875266D01*
X112218982Y-94972205D01*
X112183733Y-95102399D01*
X112183333Y-95117867D01*
X112170667Y-95221717D01*
X112142855Y-95284128D01*
X112096883Y-95356217D01*
X112036673Y-95484402D01*
X111971813Y-95643534D01*
X111911889Y-95808465D01*
X111866489Y-95954044D01*
X111845199Y-96055122D01*
X111844666Y-96066354D01*
X111882495Y-96190206D01*
X111986618Y-96307781D01*
X112072070Y-96389516D01*
X112100105Y-96444521D01*
X112080859Y-96497100D01*
X112071285Y-96510757D01*
X112024025Y-96615797D01*
X112014000Y-96681657D01*
X111984144Y-96782790D01*
X111945601Y-96830982D01*
X111918755Y-96863927D01*
X111902089Y-96916891D01*
X111896103Y-97000162D01*
X111901299Y-97124028D01*
X111918178Y-97298777D01*
X111947240Y-97534700D01*
X111988988Y-97842083D01*
X111997976Y-97906417D01*
X112035349Y-98141824D01*
X112072073Y-98303489D01*
X112111031Y-98402260D01*
X112139196Y-98438119D01*
X112212594Y-98522884D01*
X112282081Y-98633548D01*
X112322847Y-98725282D01*
X112314878Y-98785100D01*
X112251376Y-98854636D01*
X112244997Y-98860642D01*
X112162351Y-98991551D01*
X112143138Y-99150758D01*
X112188466Y-99309254D01*
X112225666Y-99366917D01*
X112284170Y-99483100D01*
X112308088Y-99648828D01*
X112309392Y-99706747D01*
X112333265Y-99921296D01*
X112405633Y-100071641D01*
X112530631Y-100165694D01*
X112554332Y-100175495D01*
X112625869Y-100214476D01*
X112622797Y-100255714D01*
X112613560Y-100265956D01*
X112567460Y-100368510D01*
X112585438Y-100508069D01*
X112664764Y-100669629D01*
X112694995Y-100713243D01*
X112775827Y-100813852D01*
X112840714Y-100878252D01*
X112864329Y-100890917D01*
X112887733Y-100928679D01*
X112901479Y-101023872D01*
X112903000Y-101074855D01*
X112930333Y-101243459D01*
X113007920Y-101354308D01*
X113129146Y-101398505D01*
X113143992Y-101398917D01*
X113227430Y-101435959D01*
X113325138Y-101537711D01*
X113349698Y-101571422D01*
X113485235Y-101744082D01*
X113606387Y-101838147D01*
X113726351Y-101854668D01*
X113858328Y-101794698D01*
X114015515Y-101659290D01*
X114047446Y-101627046D01*
X114225935Y-101463166D01*
X114394565Y-101344255D01*
X114538035Y-101280239D01*
X114594973Y-101271917D01*
X114627994Y-101308087D01*
X114638666Y-101376183D01*
X114660507Y-101499006D01*
X114722513Y-101682281D01*
X114819411Y-101915016D01*
X114945927Y-102186224D01*
X115096787Y-102484914D01*
X115266717Y-102800098D01*
X115450444Y-103120785D01*
X115575150Y-103327600D01*
X115874029Y-103812886D01*
X115274153Y-104434160D01*
X115068952Y-104649725D01*
X114863590Y-104870869D01*
X114673188Y-105080921D01*
X114512867Y-105263213D01*
X114402472Y-105395150D01*
X114261315Y-105576343D01*
X114170032Y-105717237D01*
X114131198Y-105833352D01*
X114147393Y-105940207D01*
X114221194Y-106053324D01*
X114355178Y-106188222D01*
X114551923Y-106360421D01*
X114564583Y-106371255D01*
X114869932Y-106623003D01*
X115200608Y-106878866D01*
X115547850Y-107133371D01*
X115902894Y-107381045D01*
X116256978Y-107616415D01*
X116601341Y-107834009D01*
X116927219Y-108028353D01*
X117225850Y-108193975D01*
X117488472Y-108325402D01*
X117706322Y-108417160D01*
X117870638Y-108463779D01*
X117922560Y-108468583D01*
X118073308Y-108496051D01*
X118183115Y-108553250D01*
X118281805Y-108613274D01*
X118366247Y-108637917D01*
X118486520Y-108651218D01*
X118546704Y-108702283D01*
X118559302Y-108807854D01*
X118551682Y-108886175D01*
X118541434Y-109013654D01*
X118561166Y-109096798D01*
X118622971Y-109174031D01*
X118650823Y-109201123D01*
X118721286Y-109255767D01*
X118818848Y-109305739D01*
X118958213Y-109356550D01*
X119154082Y-109413712D01*
X119363540Y-109468273D01*
X119611453Y-109526205D01*
X119865165Y-109577536D01*
X120096652Y-109617069D01*
X120277889Y-109639608D01*
X120294445Y-109640890D01*
X120465950Y-109651241D01*
X120573800Y-109650278D01*
X120638651Y-109634430D01*
X120681161Y-109600127D01*
X120703895Y-109570116D01*
X120745552Y-109515956D01*
X120768408Y-109517192D01*
X120783519Y-109584929D01*
X120793183Y-109659792D01*
X120803995Y-109760756D01*
X120820167Y-109928896D01*
X120840124Y-110147006D01*
X120862290Y-110397881D01*
X120883776Y-110648750D01*
X120944602Y-111323267D01*
X121010033Y-111961658D01*
X121079194Y-112558275D01*
X121151208Y-113107468D01*
X121225198Y-113603589D01*
X121300289Y-114040988D01*
X121375603Y-114414018D01*
X121450265Y-114717028D01*
X121523398Y-114944370D01*
X121565055Y-115039897D01*
X121656475Y-115190384D01*
X121764503Y-115295699D01*
X121909142Y-115368165D01*
X122110396Y-115420107D01*
X122211011Y-115437862D01*
X122393455Y-115461425D01*
X122621071Y-115481820D01*
X122875915Y-115498418D01*
X123140041Y-115510587D01*
X123395503Y-115517698D01*
X123624356Y-115519120D01*
X123808656Y-115514222D01*
X123930456Y-115502374D01*
X123946790Y-115498847D01*
X124080606Y-115440828D01*
X124195175Y-115356651D01*
X124300602Y-115251223D01*
X124189402Y-114008320D01*
X124132863Y-113356813D01*
X124079960Y-112708702D01*
X124031933Y-112080716D01*
X123990026Y-111489587D01*
X123955481Y-110952043D01*
X123933406Y-110560786D01*
X123909049Y-110091823D01*
X124036745Y-110110565D01*
X124174070Y-110102842D01*
X124257951Y-110030200D01*
X124290176Y-109890918D01*
X124290666Y-109865907D01*
X124290666Y-109707265D01*
X124555250Y-109657011D01*
X124706544Y-109627126D01*
X124831796Y-109600351D01*
X124893916Y-109585151D01*
X124938579Y-109583906D01*
X124960777Y-109626243D01*
X124967774Y-109730246D01*
X124968000Y-109769597D01*
X124982416Y-109934434D01*
X125031655Y-110031359D01*
X125124700Y-110073088D01*
X125185366Y-110077250D01*
X125269603Y-110084883D01*
X125400965Y-110104701D01*
X125555380Y-110132085D01*
X125708777Y-110162416D01*
X125837085Y-110191072D01*
X125916233Y-110213434D01*
X125929207Y-110220013D01*
X125928779Y-110265267D01*
X125918091Y-110383252D01*
X125898583Y-110562842D01*
X125871693Y-110792913D01*
X125838862Y-111062340D01*
X125801529Y-111359999D01*
X125761132Y-111674765D01*
X125719111Y-111995514D01*
X125676906Y-112311121D01*
X125635955Y-112610462D01*
X125597698Y-112882412D01*
X125563574Y-113115846D01*
X125535023Y-113299641D01*
X125517727Y-113400417D01*
X125481701Y-113635894D01*
X125448996Y-113925359D01*
X125422615Y-114238131D01*
X125405559Y-114543532D01*
X125405346Y-114549028D01*
X125379135Y-115231972D01*
X125488556Y-115303668D01*
X125629668Y-115365055D01*
X125837756Y-115415245D01*
X126095798Y-115453686D01*
X126386775Y-115479827D01*
X126693668Y-115493114D01*
X126999456Y-115492997D01*
X127287119Y-115478922D01*
X127539638Y-115450338D01*
X127739992Y-115406692D01*
X127815088Y-115379139D01*
X127977482Y-115282614D01*
X128062199Y-115171859D01*
X128062882Y-115170138D01*
X128108176Y-115034421D01*
X128166323Y-114829360D01*
X128234147Y-114568746D01*
X128308470Y-114266369D01*
X128386116Y-113936020D01*
X128463907Y-113591490D01*
X128538666Y-113246570D01*
X128607216Y-112915050D01*
X128666380Y-112610723D01*
X128712469Y-112350481D01*
X128774045Y-111964310D01*
X128831011Y-111581487D01*
X128881730Y-111214996D01*
X128924566Y-110877820D01*
X128957883Y-110582944D01*
X128980043Y-110343351D01*
X128989412Y-110172026D01*
X128989615Y-110151333D01*
X128996529Y-110046470D01*
X129027628Y-110001633D01*
X129092403Y-109992583D01*
X129176655Y-109981196D01*
X129323050Y-109950365D01*
X129512671Y-109905083D01*
X129726599Y-109850343D01*
X129945913Y-109791139D01*
X130151697Y-109732464D01*
X130325030Y-109679313D01*
X130446993Y-109636677D01*
X130458397Y-109632039D01*
X130570558Y-109593933D01*
X130625559Y-109600228D01*
X130634693Y-109614830D01*
X130671737Y-109675853D01*
X130743875Y-109767316D01*
X130769531Y-109796732D01*
X130887851Y-109929083D01*
X131177009Y-109854231D01*
X131503128Y-109747489D01*
X131857876Y-109587341D01*
X132249467Y-109369631D01*
X132683408Y-109092027D01*
X132971795Y-108891497D01*
X133268404Y-108674288D01*
X133565296Y-108447207D01*
X133854530Y-108217061D01*
X134128168Y-107990655D01*
X134378271Y-107774796D01*
X134596900Y-107576290D01*
X134776116Y-107401944D01*
X134907978Y-107258565D01*
X134984550Y-107152958D01*
X135001000Y-107105098D01*
X134980980Y-106999333D01*
X134957336Y-106942096D01*
X134945974Y-106897951D01*
X134962223Y-106841503D01*
X135013913Y-106760285D01*
X135108873Y-106641832D01*
X135243086Y-106487094D01*
X135447297Y-106243985D01*
X135649126Y-105982515D01*
X135841204Y-105714296D01*
X136016168Y-105450944D01*
X136166649Y-105204072D01*
X136285281Y-104985294D01*
X136364699Y-104806223D01*
X136397537Y-104678474D01*
X136398000Y-104666216D01*
X136364921Y-104572830D01*
X136270412Y-104437263D01*
X136121568Y-104267065D01*
X135925482Y-104069784D01*
X135689248Y-103852969D01*
X135419961Y-103624169D01*
X135414757Y-103619908D01*
X135299707Y-103502220D01*
X135253580Y-103387650D01*
X135251626Y-103365908D01*
X135259936Y-103282515D01*
X135286863Y-103134778D01*
X135328776Y-102940043D01*
X135382042Y-102715659D01*
X135415286Y-102584250D01*
X135483370Y-102304520D01*
X135550462Y-101999812D01*
X135609707Y-101703126D01*
X135654249Y-101447461D01*
X135661550Y-101398917D01*
X135694520Y-101177807D01*
X135722836Y-101020842D01*
X135753272Y-100908274D01*
X135792601Y-100820356D01*
X135847598Y-100737340D01*
X135919859Y-100645852D01*
X136011964Y-100524406D01*
X136077370Y-100422861D01*
X136101667Y-100364169D01*
X136121315Y-100299557D01*
X136172682Y-100187075D01*
X136240375Y-100058900D01*
X136394500Y-99766144D01*
X136509236Y-99510232D01*
X136582341Y-99298298D01*
X136611575Y-99137479D01*
X136594697Y-99034910D01*
X136570067Y-99008772D01*
X136569782Y-98966713D01*
X136620350Y-98894971D01*
X136633567Y-98881198D01*
X136693840Y-98806337D01*
X136725160Y-98717100D01*
X136736081Y-98583702D01*
X136736666Y-98522174D01*
X136741621Y-98373460D01*
X136759013Y-98293454D01*
X136792633Y-98266643D01*
X136799191Y-98266250D01*
X136858457Y-98245476D01*
X136914574Y-98177353D01*
X136971373Y-98053180D01*
X137032686Y-97864256D01*
X137102345Y-97601881D01*
X137115772Y-97547384D01*
X137184844Y-97245437D01*
X137226250Y-97014809D01*
X137240662Y-96847034D01*
X137228753Y-96733648D01*
X137191194Y-96666186D01*
X137186127Y-96661700D01*
X137153507Y-96606236D01*
X137142197Y-96501405D01*
X137149802Y-96336371D01*
X137159524Y-96185223D01*
X137152582Y-96088139D01*
X137120147Y-96014880D01*
X137053393Y-95935207D01*
X137023438Y-95903521D01*
X136938316Y-95806672D01*
X136879416Y-95713497D01*
X136839293Y-95602596D01*
X136810500Y-95452573D01*
X136785593Y-95242029D01*
X136782436Y-95210932D01*
X136742882Y-94989134D01*
X136672961Y-94764042D01*
X136580951Y-94550887D01*
X136475129Y-94364900D01*
X136363771Y-94221312D01*
X136255156Y-94135352D01*
X136188231Y-94117583D01*
X136139290Y-94093790D01*
X136094140Y-94013699D01*
X136045735Y-93864244D01*
X136039638Y-93842009D01*
X135962424Y-93609255D01*
X135876581Y-93455917D01*
X135778169Y-93376876D01*
X135672828Y-93365421D01*
X135615284Y-93367309D01*
X135561587Y-93346711D01*
X135499124Y-93292272D01*
X135415285Y-93192634D01*
X135297460Y-93036441D01*
X135277591Y-93009491D01*
X135155317Y-92845435D01*
X135068252Y-92738123D01*
X135002200Y-92675539D01*
X134942964Y-92645668D01*
X134876350Y-92636496D01*
X134836217Y-92635917D01*
X134709127Y-92650813D01*
X134613627Y-92709351D01*
X134555709Y-92771577D01*
X134465689Y-92861322D01*
X134376726Y-92895623D01*
X134283180Y-92895802D01*
X134181989Y-92899562D01*
X134019396Y-92918054D01*
X133816808Y-92948368D01*
X133595632Y-92987598D01*
X133567791Y-92992975D01*
X133338179Y-93034470D01*
X133117057Y-93068651D01*
X132928625Y-93092134D01*
X132797084Y-93101539D01*
X132790591Y-93101583D01*
X132651121Y-93108575D01*
X132553042Y-93140542D01*
X132456609Y-93213968D01*
X132407859Y-93260333D01*
X132245316Y-93419083D01*
X131580575Y-93419083D01*
X131320304Y-93417917D01*
X131127026Y-93413149D01*
X130983081Y-93402878D01*
X130870813Y-93385203D01*
X130772564Y-93358221D01*
X130674226Y-93321468D01*
X130471349Y-93224794D01*
X130234192Y-93089234D01*
X129991150Y-92932831D01*
X129770613Y-92773626D01*
X129633986Y-92660467D01*
X129538267Y-92565646D01*
X129483139Y-92477996D01*
X129452682Y-92363912D01*
X129436848Y-92244349D01*
X129404154Y-92037289D01*
X129354595Y-91901592D01*
X129278537Y-91824259D01*
X129166342Y-91792296D01*
X129099393Y-91789250D01*
X128934559Y-91759361D01*
X128826860Y-91668566D01*
X128775004Y-91515175D01*
X128771850Y-91359986D01*
X128773679Y-91232233D01*
X128749118Y-91154719D01*
X128686255Y-91094267D01*
X128673071Y-91084819D01*
X128557369Y-91000205D01*
X128441162Y-90910833D01*
X128342571Y-90846677D01*
X128260379Y-90816021D01*
X128253305Y-90815583D01*
X128196679Y-90780396D01*
X128185333Y-90733277D01*
X128158807Y-90646923D01*
X128094001Y-90545149D01*
X128084604Y-90533866D01*
X128020837Y-90470768D01*
X127947676Y-90432934D01*
X127839605Y-90411873D01*
X127681336Y-90399666D01*
X127515869Y-90386337D01*
X127414625Y-90365411D01*
X127357176Y-90330836D01*
X127332648Y-90296337D01*
X127311528Y-90249120D01*
X127324315Y-90227141D01*
X127387010Y-90226380D01*
X127515616Y-90242819D01*
X127534832Y-90245555D01*
X127773417Y-90274154D01*
X127946604Y-90279934D01*
X128070928Y-90261416D01*
X128162922Y-90217119D01*
X128200772Y-90185964D01*
X128280746Y-90125637D01*
X128327881Y-90131361D01*
X128335326Y-90141205D01*
X128393377Y-90165929D01*
X128515718Y-90177841D01*
X128683158Y-90178248D01*
X128876506Y-90168459D01*
X129076572Y-90149780D01*
X129264165Y-90123520D01*
X129420094Y-90090984D01*
X129509352Y-90061223D01*
X129635882Y-89996250D01*
X129729834Y-89920904D01*
X129805438Y-89816452D01*
X129876926Y-89664160D01*
X129941998Y-89491723D01*
X130007233Y-89319861D01*
X130063091Y-89220649D01*
X130126644Y-89186306D01*
X130214961Y-89209052D01*
X130345112Y-89281105D01*
X130370497Y-89296410D01*
X130503613Y-89349988D01*
X130655320Y-89375826D01*
X130673650Y-89376250D01*
X130806443Y-89361056D01*
X130902990Y-89301759D01*
X130951478Y-89249478D01*
X131028850Y-89144320D01*
X131080548Y-89050423D01*
X131084829Y-89038648D01*
X131137283Y-88973322D01*
X131240777Y-88901500D01*
X131306996Y-88868116D01*
X131444682Y-88785541D01*
X131619038Y-88646890D01*
X131815783Y-88463706D01*
X131851138Y-88428249D01*
X132030010Y-88238933D01*
X132164217Y-88073619D01*
X132274886Y-87903019D01*
X132383144Y-87697844D01*
X132393895Y-87675851D01*
X132510035Y-87413125D01*
X132573103Y-87208286D01*
X132584219Y-87054172D01*
X132544506Y-86943621D01*
X132513916Y-86909337D01*
X132368829Y-86813446D01*
X132158034Y-86721261D01*
X131900468Y-86638478D01*
X131615068Y-86570795D01*
X131320769Y-86523907D01*
X131190087Y-86511080D01*
X131033206Y-86497858D01*
X130915083Y-86485761D01*
X130855709Y-86476909D01*
X130852333Y-86475271D01*
X130872424Y-86437012D01*
X130925142Y-86345963D01*
X130999151Y-86221693D01*
X131000500Y-86219452D01*
X131100407Y-86034803D01*
X131142626Y-85893605D01*
X131125679Y-85776000D01*
X131048090Y-85662124D01*
X130952206Y-85569848D01*
X130842737Y-85478797D01*
X130755884Y-85416148D01*
X130715768Y-85396917D01*
X130716871Y-85366473D01*
X130760056Y-85287345D01*
X130822345Y-85195833D01*
X130934744Y-85028239D01*
X131038416Y-84850046D01*
X131122638Y-84682241D01*
X131176686Y-84545809D01*
X131191000Y-84474370D01*
X131161715Y-84390237D01*
X131095693Y-84306139D01*
X130993299Y-84232294D01*
X130832245Y-84141143D01*
X130634053Y-84042568D01*
X130420246Y-83946447D01*
X130212346Y-83862661D01*
X130031875Y-83801089D01*
X129948432Y-83779488D01*
X129700697Y-83727193D01*
X129727457Y-83556638D01*
X129752143Y-83353214D01*
X129771132Y-83107616D01*
X129783407Y-82846845D01*
X129787950Y-82597900D01*
X129783745Y-82387781D01*
X129775467Y-82281663D01*
X129757836Y-82159908D01*
X129730716Y-82068822D01*
X129680822Y-81986313D01*
X129594868Y-81890288D01*
X129462819Y-81761756D01*
X129210158Y-81530745D01*
X128958884Y-81324194D01*
X128684588Y-81123408D01*
X128362863Y-80909695D01*
X128288323Y-80862266D01*
X127908362Y-80642595D01*
X127485821Y-80433876D01*
X127042016Y-80244489D01*
X126598261Y-80082814D01*
X126175873Y-79957232D01*
X125796167Y-79876123D01*
X125769502Y-79871991D01*
X125070393Y-79808349D01*
X124377485Y-79828495D01*
G37*
X124377485Y-79828495D02*
X123690322Y-79932561D01*
X123008448Y-80120678D01*
X122331404Y-80392977D01*
X121658736Y-80749589D01*
X120989985Y-81190646D01*
X120870019Y-81278993D01*
X120685877Y-81425888D01*
X120473282Y-81610341D01*
X120244366Y-81820315D01*
X120011260Y-82043777D01*
X119786098Y-82268689D01*
X119581011Y-82483018D01*
X119408131Y-82674726D01*
X119279591Y-82831780D01*
X119224375Y-82911527D01*
X119145648Y-83046180D01*
X119102661Y-83146507D01*
X119087740Y-83246736D01*
X119093212Y-83381098D01*
X119100497Y-83464140D01*
X119127162Y-83668653D01*
X119168985Y-83900062D01*
X119211084Y-84084583D01*
X119262708Y-84288772D01*
X119288450Y-84426786D01*
X119284321Y-84514236D01*
X119246332Y-84566735D01*
X119170491Y-84599894D01*
X119073083Y-84624583D01*
X118843944Y-84696935D01*
X118590869Y-84806751D01*
X118343752Y-84938718D01*
X118132484Y-85077524D01*
X118039052Y-85154302D01*
X117901624Y-85316066D01*
X117848370Y-85471222D01*
X117879166Y-85621090D01*
X117983279Y-85757017D01*
X118065681Y-85854269D01*
X118072479Y-85916153D01*
X118067946Y-85921571D01*
X118035904Y-86000609D01*
X118027841Y-86124960D01*
X118042076Y-86259252D01*
X118076926Y-86368112D01*
X118090180Y-86389258D01*
X118138274Y-86463307D01*
X118152333Y-86499835D01*
X118113513Y-86516812D01*
X118010680Y-86536142D01*
X117864273Y-86554175D01*
X117829311Y-86557510D01*
X117551509Y-86599952D01*
X117257149Y-86674531D01*
X116965527Y-86773647D01*
X116695942Y-86889702D01*
X116467690Y-87015094D01*
X116300070Y-87142226D01*
X116272365Y-87170645D01*
X116216411Y-87288691D01*
X116218462Y-87457541D01*
X116279020Y-87680344D01*
X116397595Y-87958192D01*
X116579849Y-88264210D01*
X116821302Y-88563045D01*
X117100800Y-88833007D01*
X117397190Y-89052404D01*
X117548026Y-89137833D01*
X117699908Y-89210172D01*
X117828576Y-89264218D01*
X117910969Y-89290473D01*
X117921268Y-89291583D01*
X117995124Y-89267203D01*
X118098717Y-89206179D01*
X118135143Y-89179846D01*
X118226765Y-89115588D01*
X118286225Y-89084413D01*
X118295918Y-89084596D01*
X118324179Y-89130658D01*
X118361760Y-89200079D01*
X118493743Y-89392953D01*
X118670190Y-89566551D01*
X118871266Y-89707400D01*
X119077135Y-89802031D01*
X119267962Y-89836974D01*
X119298102Y-89835965D01*
X119439487Y-89845280D01*
X119549529Y-89907603D01*
X119567793Y-89924040D01*
X119626059Y-89972868D01*
X119686594Y-90000266D01*
X119771924Y-90009785D01*
X119904574Y-90004978D01*
X120024467Y-89996041D01*
X120227670Y-89975022D01*
X120434098Y-89945819D01*
X120601604Y-89914462D01*
X120612388Y-89911963D01*
X120748345Y-89882447D01*
X120826537Y-89876884D01*
X120870917Y-89897075D01*
X120898497Y-89933503D01*
X120971209Y-89997019D01*
X121024797Y-90011250D01*
X121104337Y-90039234D01*
X121187308Y-90103526D01*
X121238644Y-90174630D01*
X121242666Y-90194500D01*
X121208597Y-90220397D01*
X121184876Y-90222916D01*
X121114982Y-90247530D01*
X121019710Y-90307821D01*
X121006244Y-90318166D01*
X120896659Y-90383506D01*
X120740793Y-90452425D01*
X120571586Y-90512728D01*
X120421976Y-90552221D01*
X120350462Y-90560960D01*
X120264280Y-90596259D01*
X120176228Y-90680173D01*
X120113680Y-90781861D01*
X120099666Y-90843500D01*
X120069692Y-90934846D01*
X120010732Y-91009946D01*
X119962183Y-91065750D01*
X119938193Y-91136914D01*
X119933676Y-91248813D01*
X119939427Y-91365757D01*
X119931683Y-91609486D01*
X119873905Y-91788902D01*
X119767129Y-91901759D01*
X119675797Y-91937534D01*
X119517639Y-91999468D01*
X119399336Y-92097909D01*
X119340566Y-92214835D01*
X119337457Y-92247406D01*
X119351702Y-92355677D01*
X119387911Y-92497318D01*
X119408233Y-92558811D01*
X119479218Y-92756872D01*
X119238630Y-93045644D01*
X119086852Y-93224322D01*
X118914637Y-93421830D01*
X118757765Y-93597162D01*
X118749313Y-93606419D01*
X118500584Y-93878421D01*
X117575042Y-93722338D01*
X117299900Y-93676685D01*
X117048287Y-93636347D01*
X116833793Y-93603387D01*
X116670006Y-93579872D01*
X116570514Y-93567867D01*
X116551517Y-93566752D01*
X116453514Y-93532813D01*
X116349651Y-93443668D01*
X116343870Y-93436922D01*
X116234206Y-93306593D01*
X115256519Y-93320505D01*
X114278833Y-93334417D01*
X114009426Y-93154500D01*
X113818372Y-93038553D01*
X113672184Y-92982439D01*
X113555923Y-92986061D01*
X113454651Y-93049319D01*
X113368932Y-93150268D01*
X113295758Y-93260499D01*
X113249745Y-93347544D01*
X113241666Y-93376306D01*
X113207274Y-93429806D01*
X113141044Y-93472506D01*
X113047620Y-93528609D01*
X112931370Y-93615631D01*
X112887044Y-93653020D01*
X112782404Y-93763244D01*
X112738215Y-93866725D01*
X112733666Y-93923002D01*
X112747706Y-94032686D01*
X112781367Y-94106017D01*
X112812248Y-94189477D01*
X112779662Y-94293357D01*
X112693277Y-94395416D01*
X112638110Y-94435643D01*
X112537753Y-94518610D01*
X112494473Y-94624451D01*
X112487694Y-94679060D01*
X112467152Y-94789573D01*
X112423767Y-94834021D01*
X112399006Y-94837250D01*
X112297315Y-94875266D01*
X112218982Y-94972205D01*
X112183733Y-95102399D01*
X112183333Y-95117867D01*
X112170667Y-95221717D01*
X112142855Y-95284128D01*
X112096883Y-95356217D01*
X112036673Y-95484402D01*
X111971813Y-95643534D01*
X111911889Y-95808465D01*
X111866489Y-95954044D01*
X111845199Y-96055122D01*
X111844666Y-96066354D01*
X111882495Y-96190206D01*
X111986618Y-96307781D01*
X112072070Y-96389516D01*
X112100105Y-96444521D01*
X112080859Y-96497100D01*
X112071285Y-96510757D01*
X112024025Y-96615797D01*
X112014000Y-96681657D01*
X111984144Y-96782790D01*
X111945601Y-96830982D01*
X111918755Y-96863927D01*
X111902089Y-96916891D01*
X111896103Y-97000162D01*
X111901299Y-97124028D01*
X111918178Y-97298777D01*
X111947240Y-97534700D01*
X111988988Y-97842083D01*
X111997976Y-97906417D01*
X112035349Y-98141824D01*
X112072073Y-98303489D01*
X112111031Y-98402260D01*
X112139196Y-98438119D01*
X112212594Y-98522884D01*
X112282081Y-98633548D01*
X112322847Y-98725282D01*
X112314878Y-98785100D01*
X112251376Y-98854636D01*
X112244997Y-98860642D01*
X112162351Y-98991551D01*
X112143138Y-99150758D01*
X112188466Y-99309254D01*
X112225666Y-99366917D01*
X112284170Y-99483100D01*
X112308088Y-99648828D01*
X112309392Y-99706747D01*
X112333265Y-99921296D01*
X112405633Y-100071641D01*
X112530631Y-100165694D01*
X112554332Y-100175495D01*
X112625869Y-100214476D01*
X112622797Y-100255714D01*
X112613560Y-100265956D01*
X112567460Y-100368510D01*
X112585438Y-100508069D01*
X112664764Y-100669629D01*
X112694995Y-100713243D01*
X112775827Y-100813852D01*
X112840714Y-100878252D01*
X112864329Y-100890917D01*
X112887733Y-100928679D01*
X112901479Y-101023872D01*
X112903000Y-101074855D01*
X112930333Y-101243459D01*
X113007920Y-101354308D01*
X113129146Y-101398505D01*
X113143992Y-101398917D01*
X113227430Y-101435959D01*
X113325138Y-101537711D01*
X113349698Y-101571422D01*
X113485235Y-101744082D01*
X113606387Y-101838147D01*
X113726351Y-101854668D01*
X113858328Y-101794698D01*
X114015515Y-101659290D01*
X114047446Y-101627046D01*
X114225935Y-101463166D01*
X114394565Y-101344255D01*
X114538035Y-101280239D01*
X114594973Y-101271917D01*
X114627994Y-101308087D01*
X114638666Y-101376183D01*
X114660507Y-101499006D01*
X114722513Y-101682281D01*
X114819411Y-101915016D01*
X114945927Y-102186224D01*
X115096787Y-102484914D01*
X115266717Y-102800098D01*
X115450444Y-103120785D01*
X115575150Y-103327600D01*
X115874029Y-103812886D01*
X115274153Y-104434160D01*
X115068952Y-104649725D01*
X114863590Y-104870869D01*
X114673188Y-105080921D01*
X114512867Y-105263213D01*
X114402472Y-105395150D01*
X114261315Y-105576343D01*
X114170032Y-105717237D01*
X114131198Y-105833352D01*
X114147393Y-105940207D01*
X114221194Y-106053324D01*
X114355178Y-106188222D01*
X114551923Y-106360421D01*
X114564583Y-106371255D01*
X114869932Y-106623003D01*
X115200608Y-106878866D01*
X115547850Y-107133371D01*
X115902894Y-107381045D01*
X116256978Y-107616415D01*
X116601341Y-107834009D01*
X116927219Y-108028353D01*
X117225850Y-108193975D01*
X117488472Y-108325402D01*
X117706322Y-108417160D01*
X117870638Y-108463779D01*
X117922560Y-108468583D01*
X118073308Y-108496051D01*
X118183115Y-108553250D01*
X118281805Y-108613274D01*
X118366247Y-108637917D01*
X118486520Y-108651218D01*
X118546704Y-108702283D01*
X118559302Y-108807854D01*
X118551682Y-108886175D01*
X118541434Y-109013654D01*
X118561166Y-109096798D01*
X118622971Y-109174031D01*
X118650823Y-109201123D01*
X118721286Y-109255767D01*
X118818848Y-109305739D01*
X118958213Y-109356550D01*
X119154082Y-109413712D01*
X119363540Y-109468273D01*
X119611453Y-109526205D01*
X119865165Y-109577536D01*
X120096652Y-109617069D01*
X120277889Y-109639608D01*
X120294445Y-109640890D01*
X120465950Y-109651241D01*
X120573800Y-109650278D01*
X120638651Y-109634430D01*
X120681161Y-109600127D01*
X120703895Y-109570116D01*
X120745552Y-109515956D01*
X120768408Y-109517192D01*
X120783519Y-109584929D01*
X120793183Y-109659792D01*
X120803995Y-109760756D01*
X120820167Y-109928896D01*
X120840124Y-110147006D01*
X120862290Y-110397881D01*
X120883776Y-110648750D01*
X120944602Y-111323267D01*
X121010033Y-111961658D01*
X121079194Y-112558275D01*
X121151208Y-113107468D01*
X121225198Y-113603589D01*
X121300289Y-114040988D01*
X121375603Y-114414018D01*
X121450265Y-114717028D01*
X121523398Y-114944370D01*
X121565055Y-115039897D01*
X121656475Y-115190384D01*
X121764503Y-115295699D01*
X121909142Y-115368165D01*
X122110396Y-115420107D01*
X122211011Y-115437862D01*
X122393455Y-115461425D01*
X122621071Y-115481820D01*
X122875915Y-115498418D01*
X123140041Y-115510587D01*
X123395503Y-115517698D01*
X123624356Y-115519120D01*
X123808656Y-115514222D01*
X123930456Y-115502374D01*
X123946790Y-115498847D01*
X124080606Y-115440828D01*
X124195175Y-115356651D01*
X124300602Y-115251223D01*
X124189402Y-114008320D01*
X124132863Y-113356813D01*
X124079960Y-112708702D01*
X124031933Y-112080716D01*
X123990026Y-111489587D01*
X123955481Y-110952043D01*
X123933406Y-110560786D01*
X123909049Y-110091823D01*
X124036745Y-110110565D01*
X124174070Y-110102842D01*
X124257951Y-110030200D01*
X124290176Y-109890918D01*
X124290666Y-109865907D01*
X124290666Y-109707265D01*
X124555250Y-109657011D01*
X124706544Y-109627126D01*
X124831796Y-109600351D01*
X124893916Y-109585151D01*
X124938579Y-109583906D01*
X124960777Y-109626243D01*
X124967774Y-109730246D01*
X124968000Y-109769597D01*
X124982416Y-109934434D01*
X125031655Y-110031359D01*
X125124700Y-110073088D01*
X125185366Y-110077250D01*
X125269603Y-110084883D01*
X125400965Y-110104701D01*
X125555380Y-110132085D01*
X125708777Y-110162416D01*
X125837085Y-110191072D01*
X125916233Y-110213434D01*
X125929207Y-110220013D01*
X125928779Y-110265267D01*
X125918091Y-110383252D01*
X125898583Y-110562842D01*
X125871693Y-110792913D01*
X125838862Y-111062340D01*
X125801529Y-111359999D01*
X125761132Y-111674765D01*
X125719111Y-111995514D01*
X125676906Y-112311121D01*
X125635955Y-112610462D01*
X125597698Y-112882412D01*
X125563574Y-113115846D01*
X125535023Y-113299641D01*
X125517727Y-113400417D01*
X125481701Y-113635894D01*
X125448996Y-113925359D01*
X125422615Y-114238131D01*
X125405559Y-114543532D01*
X125405346Y-114549028D01*
X125379135Y-115231972D01*
X125488556Y-115303668D01*
X125629668Y-115365055D01*
X125837756Y-115415245D01*
X126095798Y-115453686D01*
X126386775Y-115479827D01*
X126693668Y-115493114D01*
X126999456Y-115492997D01*
X127287119Y-115478922D01*
X127539638Y-115450338D01*
X127739992Y-115406692D01*
X127815088Y-115379139D01*
X127977482Y-115282614D01*
X128062199Y-115171859D01*
X128062882Y-115170138D01*
X128108176Y-115034421D01*
X128166323Y-114829360D01*
X128234147Y-114568746D01*
X128308470Y-114266369D01*
X128386116Y-113936020D01*
X128463907Y-113591490D01*
X128538666Y-113246570D01*
X128607216Y-112915050D01*
X128666380Y-112610723D01*
X128712469Y-112350481D01*
X128774045Y-111964310D01*
X128831011Y-111581487D01*
X128881730Y-111214996D01*
X128924566Y-110877820D01*
X128957883Y-110582944D01*
X128980043Y-110343351D01*
X128989412Y-110172026D01*
X128989615Y-110151333D01*
X128996529Y-110046470D01*
X129027628Y-110001633D01*
X129092403Y-109992583D01*
X129176655Y-109981196D01*
X129323050Y-109950365D01*
X129512671Y-109905083D01*
X129726599Y-109850343D01*
X129945913Y-109791139D01*
X130151697Y-109732464D01*
X130325030Y-109679313D01*
X130446993Y-109636677D01*
X130458397Y-109632039D01*
X130570558Y-109593933D01*
X130625559Y-109600228D01*
X130634693Y-109614830D01*
X130671737Y-109675853D01*
X130743875Y-109767316D01*
X130769531Y-109796732D01*
X130887851Y-109929083D01*
X131177009Y-109854231D01*
X131503128Y-109747489D01*
X131857876Y-109587341D01*
X132249467Y-109369631D01*
X132683408Y-109092027D01*
X132971795Y-108891497D01*
X133268404Y-108674288D01*
X133565296Y-108447207D01*
X133854530Y-108217061D01*
X134128168Y-107990655D01*
X134378271Y-107774796D01*
X134596900Y-107576290D01*
X134776116Y-107401944D01*
X134907978Y-107258565D01*
X134984550Y-107152958D01*
X135001000Y-107105098D01*
X134980980Y-106999333D01*
X134957336Y-106942096D01*
X134945974Y-106897951D01*
X134962223Y-106841503D01*
X135013913Y-106760285D01*
X135108873Y-106641832D01*
X135243086Y-106487094D01*
X135447297Y-106243985D01*
X135649126Y-105982515D01*
X135841204Y-105714296D01*
X136016168Y-105450944D01*
X136166649Y-105204072D01*
X136285281Y-104985294D01*
X136364699Y-104806223D01*
X136397537Y-104678474D01*
X136398000Y-104666216D01*
X136364921Y-104572830D01*
X136270412Y-104437263D01*
X136121568Y-104267065D01*
X135925482Y-104069784D01*
X135689248Y-103852969D01*
X135419961Y-103624169D01*
X135414757Y-103619908D01*
X135299707Y-103502220D01*
X135253580Y-103387650D01*
X135251626Y-103365908D01*
X135259936Y-103282515D01*
X135286863Y-103134778D01*
X135328776Y-102940043D01*
X135382042Y-102715659D01*
X135415286Y-102584250D01*
X135483370Y-102304520D01*
X135550462Y-101999812D01*
X135609707Y-101703126D01*
X135654249Y-101447461D01*
X135661550Y-101398917D01*
X135694520Y-101177807D01*
X135722836Y-101020842D01*
X135753272Y-100908274D01*
X135792601Y-100820356D01*
X135847598Y-100737340D01*
X135919859Y-100645852D01*
X136011964Y-100524406D01*
X136077370Y-100422861D01*
X136101667Y-100364169D01*
X136121315Y-100299557D01*
X136172682Y-100187075D01*
X136240375Y-100058900D01*
X136394500Y-99766144D01*
X136509236Y-99510232D01*
X136582341Y-99298298D01*
X136611575Y-99137479D01*
X136594697Y-99034910D01*
X136570067Y-99008772D01*
X136569782Y-98966713D01*
X136620350Y-98894971D01*
X136633567Y-98881198D01*
X136693840Y-98806337D01*
X136725160Y-98717100D01*
X136736081Y-98583702D01*
X136736666Y-98522174D01*
X136741621Y-98373460D01*
X136759013Y-98293454D01*
X136792633Y-98266643D01*
X136799191Y-98266250D01*
X136858457Y-98245476D01*
X136914574Y-98177353D01*
X136971373Y-98053180D01*
X137032686Y-97864256D01*
X137102345Y-97601881D01*
X137115772Y-97547384D01*
X137184844Y-97245437D01*
X137226250Y-97014809D01*
X137240662Y-96847034D01*
X137228753Y-96733648D01*
X137191194Y-96666186D01*
X137186127Y-96661700D01*
X137153507Y-96606236D01*
X137142197Y-96501405D01*
X137149802Y-96336371D01*
X137159524Y-96185223D01*
X137152582Y-96088139D01*
X137120147Y-96014880D01*
X137053393Y-95935207D01*
X137023438Y-95903521D01*
X136938316Y-95806672D01*
X136879416Y-95713497D01*
X136839293Y-95602596D01*
X136810500Y-95452573D01*
X136785593Y-95242029D01*
X136782436Y-95210932D01*
X136742882Y-94989134D01*
X136672961Y-94764042D01*
X136580951Y-94550887D01*
X136475129Y-94364900D01*
X136363771Y-94221312D01*
X136255156Y-94135352D01*
X136188231Y-94117583D01*
X136139290Y-94093790D01*
X136094140Y-94013699D01*
X136045735Y-93864244D01*
X136039638Y-93842009D01*
X135962424Y-93609255D01*
X135876581Y-93455917D01*
X135778169Y-93376876D01*
X135672828Y-93365421D01*
X135615284Y-93367309D01*
X135561587Y-93346711D01*
X135499124Y-93292272D01*
X135415285Y-93192634D01*
X135297460Y-93036441D01*
X135277591Y-93009491D01*
X135155317Y-92845435D01*
X135068252Y-92738123D01*
X135002200Y-92675539D01*
X134942964Y-92645668D01*
X134876350Y-92636496D01*
X134836217Y-92635917D01*
X134709127Y-92650813D01*
X134613627Y-92709351D01*
X134555709Y-92771577D01*
X134465689Y-92861322D01*
X134376726Y-92895623D01*
X134283180Y-92895802D01*
X134181989Y-92899562D01*
X134019396Y-92918054D01*
X133816808Y-92948368D01*
X133595632Y-92987598D01*
X133567791Y-92992975D01*
X133338179Y-93034470D01*
X133117057Y-93068651D01*
X132928625Y-93092134D01*
X132797084Y-93101539D01*
X132790591Y-93101583D01*
X132651121Y-93108575D01*
X132553042Y-93140542D01*
X132456609Y-93213968D01*
X132407859Y-93260333D01*
X132245316Y-93419083D01*
X131580575Y-93419083D01*
X131320304Y-93417917D01*
X131127026Y-93413149D01*
X130983081Y-93402878D01*
X130870813Y-93385203D01*
X130772564Y-93358221D01*
X130674226Y-93321468D01*
X130471349Y-93224794D01*
X130234192Y-93089234D01*
X129991150Y-92932831D01*
X129770613Y-92773626D01*
X129633986Y-92660467D01*
X129538267Y-92565646D01*
X129483139Y-92477996D01*
X129452682Y-92363912D01*
X129436848Y-92244349D01*
X129404154Y-92037289D01*
X129354595Y-91901592D01*
X129278537Y-91824259D01*
X129166342Y-91792296D01*
X129099393Y-91789250D01*
X128934559Y-91759361D01*
X128826860Y-91668566D01*
X128775004Y-91515175D01*
X128771850Y-91359986D01*
X128773679Y-91232233D01*
X128749118Y-91154719D01*
X128686255Y-91094267D01*
X128673071Y-91084819D01*
X128557369Y-91000205D01*
X128441162Y-90910833D01*
X128342571Y-90846677D01*
X128260379Y-90816021D01*
X128253305Y-90815583D01*
X128196679Y-90780396D01*
X128185333Y-90733277D01*
X128158807Y-90646923D01*
X128094001Y-90545149D01*
X128084604Y-90533866D01*
X128020837Y-90470768D01*
X127947676Y-90432934D01*
X127839605Y-90411873D01*
X127681336Y-90399666D01*
X127515869Y-90386337D01*
X127414625Y-90365411D01*
X127357176Y-90330836D01*
X127332648Y-90296337D01*
X127311528Y-90249120D01*
X127324315Y-90227141D01*
X127387010Y-90226380D01*
X127515616Y-90242819D01*
X127534832Y-90245555D01*
X127773417Y-90274154D01*
X127946604Y-90279934D01*
X128070928Y-90261416D01*
X128162922Y-90217119D01*
X128200772Y-90185964D01*
X128280746Y-90125637D01*
X128327881Y-90131361D01*
X128335326Y-90141205D01*
X128393377Y-90165929D01*
X128515718Y-90177841D01*
X128683158Y-90178248D01*
X128876506Y-90168459D01*
X129076572Y-90149780D01*
X129264165Y-90123520D01*
X129420094Y-90090984D01*
X129509352Y-90061223D01*
X129635882Y-89996250D01*
X129729834Y-89920904D01*
X129805438Y-89816452D01*
X129876926Y-89664160D01*
X129941998Y-89491723D01*
X130007233Y-89319861D01*
X130063091Y-89220649D01*
X130126644Y-89186306D01*
X130214961Y-89209052D01*
X130345112Y-89281105D01*
X130370497Y-89296410D01*
X130503613Y-89349988D01*
X130655320Y-89375826D01*
X130673650Y-89376250D01*
X130806443Y-89361056D01*
X130902990Y-89301759D01*
X130951478Y-89249478D01*
X131028850Y-89144320D01*
X131080548Y-89050423D01*
X131084829Y-89038648D01*
X131137283Y-88973322D01*
X131240777Y-88901500D01*
X131306996Y-88868116D01*
X131444682Y-88785541D01*
X131619038Y-88646890D01*
X131815783Y-88463706D01*
X131851138Y-88428249D01*
X132030010Y-88238933D01*
X132164217Y-88073619D01*
X132274886Y-87903019D01*
X132383144Y-87697844D01*
X132393895Y-87675851D01*
X132510035Y-87413125D01*
X132573103Y-87208286D01*
X132584219Y-87054172D01*
X132544506Y-86943621D01*
X132513916Y-86909337D01*
X132368829Y-86813446D01*
X132158034Y-86721261D01*
X131900468Y-86638478D01*
X131615068Y-86570795D01*
X131320769Y-86523907D01*
X131190087Y-86511080D01*
X131033206Y-86497858D01*
X130915083Y-86485761D01*
X130855709Y-86476909D01*
X130852333Y-86475271D01*
X130872424Y-86437012D01*
X130925142Y-86345963D01*
X130999151Y-86221693D01*
X131000500Y-86219452D01*
X131100407Y-86034803D01*
X131142626Y-85893605D01*
X131125679Y-85776000D01*
X131048090Y-85662124D01*
X130952206Y-85569848D01*
X130842737Y-85478797D01*
X130755884Y-85416148D01*
X130715768Y-85396917D01*
X130716871Y-85366473D01*
X130760056Y-85287345D01*
X130822345Y-85195833D01*
X130934744Y-85028239D01*
X131038416Y-84850046D01*
X131122638Y-84682241D01*
X131176686Y-84545809D01*
X131191000Y-84474370D01*
X131161715Y-84390237D01*
X131095693Y-84306139D01*
X130993299Y-84232294D01*
X130832245Y-84141143D01*
X130634053Y-84042568D01*
X130420246Y-83946447D01*
X130212346Y-83862661D01*
X130031875Y-83801089D01*
X129948432Y-83779488D01*
X129700697Y-83727193D01*
X129727457Y-83556638D01*
X129752143Y-83353214D01*
X129771132Y-83107616D01*
X129783407Y-82846845D01*
X129787950Y-82597900D01*
X129783745Y-82387781D01*
X129775467Y-82281663D01*
X129757836Y-82159908D01*
X129730716Y-82068822D01*
X129680822Y-81986313D01*
X129594868Y-81890288D01*
X129462819Y-81761756D01*
X129210158Y-81530745D01*
X128958884Y-81324194D01*
X128684588Y-81123408D01*
X128362863Y-80909695D01*
X128288323Y-80862266D01*
X127908362Y-80642595D01*
X127485821Y-80433876D01*
X127042016Y-80244489D01*
X126598261Y-80082814D01*
X126175873Y-79957232D01*
X125796167Y-79876123D01*
X125769502Y-79871991D01*
X125070393Y-79808349D01*
X124377485Y-79828495D01*
G36*
X104966394Y-99093555D02*
G01*
X104719515Y-99156611D01*
X104465010Y-99250959D01*
X104340828Y-99308980D01*
X104087504Y-99457973D01*
X103823484Y-99649182D01*
X103565763Y-99867058D01*
X103331332Y-100096052D01*
X103137185Y-100320617D01*
X103000315Y-100525204D01*
X102989876Y-100545056D01*
X102934648Y-100721199D01*
X102913635Y-100949601D01*
X102927358Y-101204850D01*
X102971466Y-101442939D01*
X103010058Y-101620185D01*
X103045047Y-101824634D01*
X103060792Y-101942998D01*
X103075160Y-102087773D01*
X103074721Y-102165803D01*
X103056094Y-102194235D01*
X103015897Y-102190216D01*
X103012242Y-102189178D01*
X102907315Y-102166218D01*
X102732068Y-102136145D01*
X102500382Y-102100744D01*
X102226136Y-102061798D01*
X101923208Y-102021093D01*
X101605478Y-101980413D01*
X101286825Y-101941542D01*
X100981128Y-101906266D01*
X100702266Y-101876368D01*
X100464118Y-101853634D01*
X100308833Y-101841580D01*
X100087870Y-101826190D01*
X99932140Y-101810374D01*
X99822338Y-101789089D01*
X99739157Y-101757292D01*
X99663291Y-101709937D01*
X99590370Y-101653873D01*
X99464319Y-101572817D01*
X99334158Y-101534995D01*
X99186906Y-101542493D01*
X99009584Y-101597399D01*
X98789211Y-101701799D01*
X98585021Y-101815487D01*
X98425990Y-101924966D01*
X98249745Y-102074025D01*
X98071740Y-102246307D01*
X97907428Y-102425455D01*
X97772262Y-102595113D01*
X97681696Y-102738926D01*
X97657669Y-102797014D01*
X97634398Y-102996530D01*
X97691463Y-103176872D01*
X97830283Y-103341210D01*
X97937909Y-103423187D01*
X98046681Y-103493049D01*
X98134143Y-103533449D01*
X98228910Y-103550746D01*
X98359598Y-103551296D01*
X98486973Y-103545163D01*
X98659376Y-103533259D01*
X98887974Y-103513883D01*
X99144889Y-103489568D01*
X99402243Y-103462842D01*
X99441000Y-103458578D01*
X99783692Y-103425749D01*
X100116510Y-103403536D01*
X100426598Y-103392030D01*
X100701097Y-103391324D01*
X100927150Y-103401510D01*
X101091899Y-103422681D01*
X101168185Y-103446167D01*
X101272745Y-103481716D01*
X101423773Y-103513566D01*
X101544335Y-103529897D01*
X101778555Y-103559206D01*
X102021194Y-103602627D01*
X102286337Y-103663716D01*
X102588070Y-103746027D01*
X102940479Y-103853118D01*
X103345491Y-103984507D01*
X103612141Y-104070991D01*
X103859195Y-104147502D01*
X104072793Y-104210035D01*
X104239076Y-104254584D01*
X104344188Y-104277142D01*
X104364595Y-104279110D01*
X104434323Y-104282417D01*
X104442575Y-104294507D01*
X104382625Y-104321966D01*
X104283442Y-104358559D01*
X104014327Y-104473933D01*
X103779581Y-104619637D01*
X103553104Y-104813723D01*
X103406207Y-104965390D01*
X103202765Y-105184481D01*
X103042459Y-105350624D01*
X102912981Y-105474855D01*
X102802021Y-105568211D01*
X102697271Y-105641731D01*
X102586420Y-105706450D01*
X102569727Y-105715430D01*
X102275318Y-105840743D01*
X101946225Y-105928867D01*
X101625023Y-105968984D01*
X101566890Y-105970291D01*
X101412052Y-105979209D01*
X101270468Y-106010427D01*
X101122837Y-106072045D01*
X100949862Y-106172167D01*
X100732244Y-106318893D01*
X100725851Y-106323378D01*
X100519240Y-106473577D01*
X100360793Y-106604526D01*
X100225774Y-106740033D01*
X100089448Y-106903906D01*
X99998249Y-107023720D01*
X99828597Y-107251024D01*
X99817275Y-107806887D01*
X99811755Y-108196325D01*
X99814720Y-108517629D01*
X99829246Y-108787157D01*
X99858408Y-109021270D01*
X99905284Y-109236326D01*
X99972948Y-109448685D01*
X100064479Y-109674706D01*
X100182950Y-109930748D01*
X100237909Y-110043884D01*
X100341824Y-110258681D01*
X100433837Y-110453917D01*
X100506670Y-110613761D01*
X100553043Y-110722377D01*
X100564644Y-110754583D01*
X100622437Y-110907317D01*
X100713712Y-111097431D01*
X100821932Y-111293997D01*
X100930558Y-111466083D01*
X100983407Y-111537750D01*
X101078542Y-111668925D01*
X101185351Y-111834274D01*
X101259804Y-111961083D01*
X101465959Y-112302188D01*
X101688199Y-112615359D01*
X101916479Y-112889034D01*
X102140754Y-113111651D01*
X102350981Y-113271647D01*
X102442032Y-113321903D01*
X102612231Y-113402677D01*
X102809581Y-113496651D01*
X102953022Y-113565151D01*
X103285601Y-113678592D01*
X103632535Y-113711600D01*
X103979190Y-113663227D01*
X104067143Y-113637309D01*
X104239861Y-113563839D01*
X104424534Y-113460067D01*
X104532810Y-113384925D01*
X104745661Y-113206840D01*
X104987027Y-112984559D01*
X105240870Y-112734729D01*
X105491152Y-112473996D01*
X105721835Y-112219008D01*
X105916880Y-111986411D01*
X106045000Y-111815363D01*
X106175961Y-111630668D01*
X106310596Y-111450057D01*
X106430187Y-111298207D01*
X106494513Y-111222696D01*
X106656302Y-111021304D01*
X106762589Y-110839745D01*
X106806281Y-110690502D01*
X106807000Y-110672540D01*
X106816703Y-110641015D01*
X106852905Y-110643266D01*
X106926245Y-110684806D01*
X107047364Y-110771150D01*
X107156250Y-110853527D01*
X107677549Y-111237252D01*
X108157646Y-111559421D01*
X108593030Y-111817772D01*
X108881333Y-111965110D01*
X108994473Y-112018986D01*
X109166697Y-112101812D01*
X109381012Y-112205378D01*
X109620427Y-112321473D01*
X109850593Y-112433430D01*
X110158410Y-112582796D01*
X110400440Y-112698345D01*
X110586646Y-112784083D01*
X110726989Y-112844017D01*
X110831432Y-112882152D01*
X110909936Y-112902495D01*
X110972465Y-112909052D01*
X111026156Y-112906158D01*
X111112068Y-112882220D01*
X111149909Y-112818537D01*
X111159457Y-112754493D01*
X111158277Y-112682269D01*
X111133351Y-112608930D01*
X111074903Y-112518036D01*
X110973156Y-112393143D01*
X110884291Y-112291706D01*
X110668620Y-112053053D01*
X110480790Y-111856681D01*
X110296114Y-111678468D01*
X110089903Y-111494292D01*
X109918500Y-111348042D01*
X109718994Y-111171217D01*
X109474258Y-110940196D01*
X109194026Y-110665182D01*
X108962093Y-110431116D01*
X106540424Y-110431116D01*
X106535740Y-110458228D01*
X106512720Y-110477583D01*
X106496241Y-110486637D01*
X106411441Y-110546912D01*
X106371554Y-110598087D01*
X106328880Y-110642262D01*
X106228488Y-110721129D01*
X106084699Y-110824888D01*
X105911832Y-110943743D01*
X105724205Y-111067895D01*
X105536139Y-111187549D01*
X105361953Y-111292905D01*
X105323770Y-111314995D01*
X105173204Y-111379306D01*
X104957211Y-111441843D01*
X104694996Y-111498359D01*
X104405764Y-111544611D01*
X104161166Y-111571965D01*
X104051618Y-111583050D01*
X103985796Y-111592260D01*
X103979148Y-111594133D01*
X103937076Y-111581848D01*
X103852588Y-111542352D01*
X103847688Y-111539830D01*
X103768100Y-111482807D01*
X103651047Y-111379619D01*
X103515306Y-111247387D01*
X103434118Y-111162744D01*
X103172552Y-110836936D01*
X102923778Y-110436668D01*
X102692339Y-109971741D01*
X102482778Y-109451959D01*
X102299637Y-108887125D01*
X102193074Y-108484640D01*
X102136520Y-108245024D01*
X102104862Y-108072653D01*
X102103261Y-107952436D01*
X102136880Y-107869282D01*
X102210882Y-107808100D01*
X102330431Y-107753799D01*
X102459381Y-107706238D01*
X102614211Y-107643295D01*
X102810828Y-107553464D01*
X103017365Y-107451611D01*
X103116575Y-107399653D01*
X103328823Y-107292693D01*
X103484788Y-107234690D01*
X103597539Y-107226037D01*
X103680148Y-107267126D01*
X103745682Y-107358349D01*
X103774624Y-107419392D01*
X103829544Y-107526937D01*
X103909909Y-107651596D01*
X104019934Y-107797997D01*
X104163831Y-107970768D01*
X104345814Y-108174536D01*
X104570097Y-108413930D01*
X104840892Y-108693576D01*
X105162413Y-109018103D01*
X105538874Y-109392139D01*
X105845767Y-109694165D01*
X106077736Y-109922089D01*
X106255188Y-110098178D01*
X106384153Y-110229779D01*
X106470660Y-110324238D01*
X106520740Y-110388901D01*
X106540424Y-110431116D01*
X108962093Y-110431116D01*
X108888035Y-110356377D01*
X108566021Y-110023983D01*
X108237721Y-109678202D01*
X107912871Y-109329236D01*
X107601207Y-108987288D01*
X107312466Y-108662559D01*
X107056383Y-108365252D01*
X106948310Y-108235750D01*
X106609515Y-107780922D01*
X106284709Y-107258992D01*
X105984142Y-106687444D01*
X105792339Y-106264096D01*
X105704216Y-106057422D01*
X105622731Y-105868394D01*
X105556205Y-105716178D01*
X105512960Y-105619941D01*
X105508982Y-105611489D01*
X105474551Y-105525151D01*
X105484622Y-105466457D01*
X105549106Y-105399783D01*
X105573757Y-105378655D01*
X105670130Y-105296069D01*
X105801430Y-105182625D01*
X105935968Y-105065725D01*
X106173089Y-104859034D01*
X106437128Y-104999259D01*
X106988486Y-105325606D01*
X107491004Y-105696251D01*
X107585913Y-105775417D01*
X107734011Y-105900244D01*
X107864571Y-106008388D01*
X107959987Y-106085366D01*
X107994964Y-106111928D01*
X108054351Y-106190597D01*
X108083885Y-106289151D01*
X108105188Y-106367510D01*
X108160698Y-106430780D01*
X108269369Y-106497321D01*
X108331000Y-106528489D01*
X108527721Y-106604547D01*
X108730407Y-106637101D01*
X108951450Y-106624365D01*
X109203239Y-106564555D01*
X109498166Y-106455886D01*
X109809155Y-106315586D01*
X109978183Y-106209976D01*
X110161701Y-106056561D01*
X110332316Y-105881119D01*
X110462635Y-105709425D01*
X110475012Y-105689026D01*
X110560139Y-105465455D01*
X110567447Y-105232193D01*
X110498054Y-105008544D01*
X110429179Y-104898692D01*
X110344312Y-104800706D01*
X110262782Y-104755336D01*
X110144655Y-104742746D01*
X110114559Y-104742422D01*
X109958766Y-104722452D01*
X109748649Y-104662047D01*
X109475955Y-104558800D01*
X109452833Y-104549296D01*
X109248112Y-104465901D01*
X109051938Y-104387992D01*
X108888906Y-104325227D01*
X108796666Y-104291649D01*
X108663709Y-104241139D01*
X108489582Y-104168479D01*
X108309350Y-104088362D01*
X108288666Y-104078801D01*
X108092637Y-103993727D01*
X107859668Y-103901381D01*
X107633840Y-103819085D01*
X107590166Y-103804273D01*
X107191564Y-103669343D01*
X106865507Y-103553965D01*
X106603161Y-103454342D01*
X106395687Y-103366676D01*
X106234251Y-103287169D01*
X106110015Y-103212023D01*
X106014142Y-103137440D01*
X105992848Y-103117745D01*
X105877873Y-102995939D01*
X105814602Y-102890939D01*
X105785104Y-102771386D01*
X105782422Y-102749712D01*
X105751554Y-102605864D01*
X105694515Y-102433789D01*
X105647374Y-102322390D01*
X105579776Y-102156045D01*
X105541010Y-101991296D01*
X105529314Y-101806116D01*
X105542926Y-101578478D01*
X105570073Y-101356583D01*
X105598725Y-101173644D01*
X105628166Y-101054117D01*
X105666032Y-100977024D01*
X105719962Y-100921388D01*
X105731900Y-100912083D01*
X105819321Y-100839946D01*
X105941141Y-100732123D01*
X106071027Y-100611923D01*
X106071358Y-100611609D01*
X106188041Y-100498114D01*
X106255962Y-100415617D01*
X106288311Y-100337407D01*
X106298277Y-100236770D01*
X106299000Y-100150554D01*
X106292522Y-100000079D01*
X106263903Y-99888888D01*
X106199361Y-99777344D01*
X106142320Y-99699856D01*
X105935567Y-99466891D01*
X105710083Y-99279124D01*
X105480701Y-99146203D01*
X105262251Y-99077776D01*
X105174894Y-99070583D01*
X104966394Y-99093555D01*
G37*
X104966394Y-99093555D02*
X104719515Y-99156611D01*
X104465010Y-99250959D01*
X104340828Y-99308980D01*
X104087504Y-99457973D01*
X103823484Y-99649182D01*
X103565763Y-99867058D01*
X103331332Y-100096052D01*
X103137185Y-100320617D01*
X103000315Y-100525204D01*
X102989876Y-100545056D01*
X102934648Y-100721199D01*
X102913635Y-100949601D01*
X102927358Y-101204850D01*
X102971466Y-101442939D01*
X103010058Y-101620185D01*
X103045047Y-101824634D01*
X103060792Y-101942998D01*
X103075160Y-102087773D01*
X103074721Y-102165803D01*
X103056094Y-102194235D01*
X103015897Y-102190216D01*
X103012242Y-102189178D01*
X102907315Y-102166218D01*
X102732068Y-102136145D01*
X102500382Y-102100744D01*
X102226136Y-102061798D01*
X101923208Y-102021093D01*
X101605478Y-101980413D01*
X101286825Y-101941542D01*
X100981128Y-101906266D01*
X100702266Y-101876368D01*
X100464118Y-101853634D01*
X100308833Y-101841580D01*
X100087870Y-101826190D01*
X99932140Y-101810374D01*
X99822338Y-101789089D01*
X99739157Y-101757292D01*
X99663291Y-101709937D01*
X99590370Y-101653873D01*
X99464319Y-101572817D01*
X99334158Y-101534995D01*
X99186906Y-101542493D01*
X99009584Y-101597399D01*
X98789211Y-101701799D01*
X98585021Y-101815487D01*
X98425990Y-101924966D01*
X98249745Y-102074025D01*
X98071740Y-102246307D01*
X97907428Y-102425455D01*
X97772262Y-102595113D01*
X97681696Y-102738926D01*
X97657669Y-102797014D01*
X97634398Y-102996530D01*
X97691463Y-103176872D01*
X97830283Y-103341210D01*
X97937909Y-103423187D01*
X98046681Y-103493049D01*
X98134143Y-103533449D01*
X98228910Y-103550746D01*
X98359598Y-103551296D01*
X98486973Y-103545163D01*
X98659376Y-103533259D01*
X98887974Y-103513883D01*
X99144889Y-103489568D01*
X99402243Y-103462842D01*
X99441000Y-103458578D01*
X99783692Y-103425749D01*
X100116510Y-103403536D01*
X100426598Y-103392030D01*
X100701097Y-103391324D01*
X100927150Y-103401510D01*
X101091899Y-103422681D01*
X101168185Y-103446167D01*
X101272745Y-103481716D01*
X101423773Y-103513566D01*
X101544335Y-103529897D01*
X101778555Y-103559206D01*
X102021194Y-103602627D01*
X102286337Y-103663716D01*
X102588070Y-103746027D01*
X102940479Y-103853118D01*
X103345491Y-103984507D01*
X103612141Y-104070991D01*
X103859195Y-104147502D01*
X104072793Y-104210035D01*
X104239076Y-104254584D01*
X104344188Y-104277142D01*
X104364595Y-104279110D01*
X104434323Y-104282417D01*
X104442575Y-104294507D01*
X104382625Y-104321966D01*
X104283442Y-104358559D01*
X104014327Y-104473933D01*
X103779581Y-104619637D01*
X103553104Y-104813723D01*
X103406207Y-104965390D01*
X103202765Y-105184481D01*
X103042459Y-105350624D01*
X102912981Y-105474855D01*
X102802021Y-105568211D01*
X102697271Y-105641731D01*
X102586420Y-105706450D01*
X102569727Y-105715430D01*
X102275318Y-105840743D01*
X101946225Y-105928867D01*
X101625023Y-105968984D01*
X101566890Y-105970291D01*
X101412052Y-105979209D01*
X101270468Y-106010427D01*
X101122837Y-106072045D01*
X100949862Y-106172167D01*
X100732244Y-106318893D01*
X100725851Y-106323378D01*
X100519240Y-106473577D01*
X100360793Y-106604526D01*
X100225774Y-106740033D01*
X100089448Y-106903906D01*
X99998249Y-107023720D01*
X99828597Y-107251024D01*
X99817275Y-107806887D01*
X99811755Y-108196325D01*
X99814720Y-108517629D01*
X99829246Y-108787157D01*
X99858408Y-109021270D01*
X99905284Y-109236326D01*
X99972948Y-109448685D01*
X100064479Y-109674706D01*
X100182950Y-109930748D01*
X100237909Y-110043884D01*
X100341824Y-110258681D01*
X100433837Y-110453917D01*
X100506670Y-110613761D01*
X100553043Y-110722377D01*
X100564644Y-110754583D01*
X100622437Y-110907317D01*
X100713712Y-111097431D01*
X100821932Y-111293997D01*
X100930558Y-111466083D01*
X100983407Y-111537750D01*
X101078542Y-111668925D01*
X101185351Y-111834274D01*
X101259804Y-111961083D01*
X101465959Y-112302188D01*
X101688199Y-112615359D01*
X101916479Y-112889034D01*
X102140754Y-113111651D01*
X102350981Y-113271647D01*
X102442032Y-113321903D01*
X102612231Y-113402677D01*
X102809581Y-113496651D01*
X102953022Y-113565151D01*
X103285601Y-113678592D01*
X103632535Y-113711600D01*
X103979190Y-113663227D01*
X104067143Y-113637309D01*
X104239861Y-113563839D01*
X104424534Y-113460067D01*
X104532810Y-113384925D01*
X104745661Y-113206840D01*
X104987027Y-112984559D01*
X105240870Y-112734729D01*
X105491152Y-112473996D01*
X105721835Y-112219008D01*
X105916880Y-111986411D01*
X106045000Y-111815363D01*
X106175961Y-111630668D01*
X106310596Y-111450057D01*
X106430187Y-111298207D01*
X106494513Y-111222696D01*
X106656302Y-111021304D01*
X106762589Y-110839745D01*
X106806281Y-110690502D01*
X106807000Y-110672540D01*
X106816703Y-110641015D01*
X106852905Y-110643266D01*
X106926245Y-110684806D01*
X107047364Y-110771150D01*
X107156250Y-110853527D01*
X107677549Y-111237252D01*
X108157646Y-111559421D01*
X108593030Y-111817772D01*
X108881333Y-111965110D01*
X108994473Y-112018986D01*
X109166697Y-112101812D01*
X109381012Y-112205378D01*
X109620427Y-112321473D01*
X109850593Y-112433430D01*
X110158410Y-112582796D01*
X110400440Y-112698345D01*
X110586646Y-112784083D01*
X110726989Y-112844017D01*
X110831432Y-112882152D01*
X110909936Y-112902495D01*
X110972465Y-112909052D01*
X111026156Y-112906158D01*
X111112068Y-112882220D01*
X111149909Y-112818537D01*
X111159457Y-112754493D01*
X111158277Y-112682269D01*
X111133351Y-112608930D01*
X111074903Y-112518036D01*
X110973156Y-112393143D01*
X110884291Y-112291706D01*
X110668620Y-112053053D01*
X110480790Y-111856681D01*
X110296114Y-111678468D01*
X110089903Y-111494292D01*
X109918500Y-111348042D01*
X109718994Y-111171217D01*
X109474258Y-110940196D01*
X109194026Y-110665182D01*
X108962093Y-110431116D01*
X106540424Y-110431116D01*
X106535740Y-110458228D01*
X106512720Y-110477583D01*
X106496241Y-110486637D01*
X106411441Y-110546912D01*
X106371554Y-110598087D01*
X106328880Y-110642262D01*
X106228488Y-110721129D01*
X106084699Y-110824888D01*
X105911832Y-110943743D01*
X105724205Y-111067895D01*
X105536139Y-111187549D01*
X105361953Y-111292905D01*
X105323770Y-111314995D01*
X105173204Y-111379306D01*
X104957211Y-111441843D01*
X104694996Y-111498359D01*
X104405764Y-111544611D01*
X104161166Y-111571965D01*
X104051618Y-111583050D01*
X103985796Y-111592260D01*
X103979148Y-111594133D01*
X103937076Y-111581848D01*
X103852588Y-111542352D01*
X103847688Y-111539830D01*
X103768100Y-111482807D01*
X103651047Y-111379619D01*
X103515306Y-111247387D01*
X103434118Y-111162744D01*
X103172552Y-110836936D01*
X102923778Y-110436668D01*
X102692339Y-109971741D01*
X102482778Y-109451959D01*
X102299637Y-108887125D01*
X102193074Y-108484640D01*
X102136520Y-108245024D01*
X102104862Y-108072653D01*
X102103261Y-107952436D01*
X102136880Y-107869282D01*
X102210882Y-107808100D01*
X102330431Y-107753799D01*
X102459381Y-107706238D01*
X102614211Y-107643295D01*
X102810828Y-107553464D01*
X103017365Y-107451611D01*
X103116575Y-107399653D01*
X103328823Y-107292693D01*
X103484788Y-107234690D01*
X103597539Y-107226037D01*
X103680148Y-107267126D01*
X103745682Y-107358349D01*
X103774624Y-107419392D01*
X103829544Y-107526937D01*
X103909909Y-107651596D01*
X104019934Y-107797997D01*
X104163831Y-107970768D01*
X104345814Y-108174536D01*
X104570097Y-108413930D01*
X104840892Y-108693576D01*
X105162413Y-109018103D01*
X105538874Y-109392139D01*
X105845767Y-109694165D01*
X106077736Y-109922089D01*
X106255188Y-110098178D01*
X106384153Y-110229779D01*
X106470660Y-110324238D01*
X106520740Y-110388901D01*
X106540424Y-110431116D01*
X108962093Y-110431116D01*
X108888035Y-110356377D01*
X108566021Y-110023983D01*
X108237721Y-109678202D01*
X107912871Y-109329236D01*
X107601207Y-108987288D01*
X107312466Y-108662559D01*
X107056383Y-108365252D01*
X106948310Y-108235750D01*
X106609515Y-107780922D01*
X106284709Y-107258992D01*
X105984142Y-106687444D01*
X105792339Y-106264096D01*
X105704216Y-106057422D01*
X105622731Y-105868394D01*
X105556205Y-105716178D01*
X105512960Y-105619941D01*
X105508982Y-105611489D01*
X105474551Y-105525151D01*
X105484622Y-105466457D01*
X105549106Y-105399783D01*
X105573757Y-105378655D01*
X105670130Y-105296069D01*
X105801430Y-105182625D01*
X105935968Y-105065725D01*
X106173089Y-104859034D01*
X106437128Y-104999259D01*
X106988486Y-105325606D01*
X107491004Y-105696251D01*
X107585913Y-105775417D01*
X107734011Y-105900244D01*
X107864571Y-106008388D01*
X107959987Y-106085366D01*
X107994964Y-106111928D01*
X108054351Y-106190597D01*
X108083885Y-106289151D01*
X108105188Y-106367510D01*
X108160698Y-106430780D01*
X108269369Y-106497321D01*
X108331000Y-106528489D01*
X108527721Y-106604547D01*
X108730407Y-106637101D01*
X108951450Y-106624365D01*
X109203239Y-106564555D01*
X109498166Y-106455886D01*
X109809155Y-106315586D01*
X109978183Y-106209976D01*
X110161701Y-106056561D01*
X110332316Y-105881119D01*
X110462635Y-105709425D01*
X110475012Y-105689026D01*
X110560139Y-105465455D01*
X110567447Y-105232193D01*
X110498054Y-105008544D01*
X110429179Y-104898692D01*
X110344312Y-104800706D01*
X110262782Y-104755336D01*
X110144655Y-104742746D01*
X110114559Y-104742422D01*
X109958766Y-104722452D01*
X109748649Y-104662047D01*
X109475955Y-104558800D01*
X109452833Y-104549296D01*
X109248112Y-104465901D01*
X109051938Y-104387992D01*
X108888906Y-104325227D01*
X108796666Y-104291649D01*
X108663709Y-104241139D01*
X108489582Y-104168479D01*
X108309350Y-104088362D01*
X108288666Y-104078801D01*
X108092637Y-103993727D01*
X107859668Y-103901381D01*
X107633840Y-103819085D01*
X107590166Y-103804273D01*
X107191564Y-103669343D01*
X106865507Y-103553965D01*
X106603161Y-103454342D01*
X106395687Y-103366676D01*
X106234251Y-103287169D01*
X106110015Y-103212023D01*
X106014142Y-103137440D01*
X105992848Y-103117745D01*
X105877873Y-102995939D01*
X105814602Y-102890939D01*
X105785104Y-102771386D01*
X105782422Y-102749712D01*
X105751554Y-102605864D01*
X105694515Y-102433789D01*
X105647374Y-102322390D01*
X105579776Y-102156045D01*
X105541010Y-101991296D01*
X105529314Y-101806116D01*
X105542926Y-101578478D01*
X105570073Y-101356583D01*
X105598725Y-101173644D01*
X105628166Y-101054117D01*
X105666032Y-100977024D01*
X105719962Y-100921388D01*
X105731900Y-100912083D01*
X105819321Y-100839946D01*
X105941141Y-100732123D01*
X106071027Y-100611923D01*
X106071358Y-100611609D01*
X106188041Y-100498114D01*
X106255962Y-100415617D01*
X106288311Y-100337407D01*
X106298277Y-100236770D01*
X106299000Y-100150554D01*
X106292522Y-100000079D01*
X106263903Y-99888888D01*
X106199361Y-99777344D01*
X106142320Y-99699856D01*
X105935567Y-99466891D01*
X105710083Y-99279124D01*
X105480701Y-99146203D01*
X105262251Y-99077776D01*
X105174894Y-99070583D01*
X104966394Y-99093555D01*
G36*
X104606904Y-82524323D02*
G01*
X104503566Y-82549398D01*
X104390805Y-82603763D01*
X104242157Y-82697704D01*
X104209957Y-82719333D01*
X104026263Y-82853814D01*
X103826885Y-83015917D01*
X103653908Y-83171366D01*
X103648551Y-83176554D01*
X103481388Y-83356186D01*
X103381955Y-83512251D01*
X103344128Y-83662590D01*
X103361785Y-83825042D01*
X103392100Y-83923708D01*
X103438528Y-84088476D01*
X103471372Y-84266667D01*
X103475444Y-84302975D01*
X103493730Y-84500199D01*
X103277115Y-84369564D01*
X103128239Y-84268362D01*
X102986159Y-84153502D01*
X102922862Y-84092875D01*
X102867389Y-84035233D01*
X102817293Y-83995225D01*
X102758377Y-83972011D01*
X102676447Y-83964752D01*
X102557306Y-83972610D01*
X102386760Y-83994745D01*
X102150612Y-84030319D01*
X102071068Y-84042532D01*
X101871497Y-84084237D01*
X101631353Y-84151647D01*
X101367878Y-84238090D01*
X101098319Y-84336894D01*
X100839919Y-84441385D01*
X100609921Y-84544892D01*
X100425570Y-84640742D01*
X100304110Y-84722263D01*
X100296138Y-84729324D01*
X100100054Y-84941801D01*
X99987416Y-85141156D01*
X99957815Y-85325964D01*
X100010844Y-85494802D01*
X100146094Y-85646247D01*
X100363157Y-85778875D01*
X100626333Y-85880410D01*
X100805641Y-85939634D01*
X100994069Y-86005969D01*
X101070833Y-86034500D01*
X101208420Y-86074914D01*
X101398500Y-86115083D01*
X101609119Y-86148675D01*
X101705833Y-86160359D01*
X101911296Y-86182447D01*
X102107883Y-86203937D01*
X102265407Y-86221514D01*
X102319666Y-86227750D01*
X102448135Y-86253829D01*
X102622862Y-86303650D01*
X102812163Y-86367890D01*
X102870000Y-86389719D01*
X103047191Y-86457224D01*
X103208895Y-86516603D01*
X103328459Y-86558145D01*
X103356833Y-86567096D01*
X103421226Y-86590787D01*
X103462083Y-86627897D01*
X103488237Y-86697956D01*
X103508520Y-86820492D01*
X103522171Y-86932665D01*
X103537094Y-87091002D01*
X103542079Y-87215017D01*
X103536403Y-87282378D01*
X103533665Y-87287362D01*
X103481641Y-87294413D01*
X103369234Y-87288166D01*
X103219440Y-87270024D01*
X103198994Y-87266953D01*
X102655527Y-87195545D01*
X102162589Y-87155291D01*
X101726318Y-87146190D01*
X101352851Y-87168240D01*
X101048326Y-87221437D01*
X100902353Y-87267873D01*
X100662785Y-87386065D01*
X100394594Y-87558024D01*
X100117063Y-87767704D01*
X99849472Y-87999062D01*
X99611106Y-88236052D01*
X99421245Y-88462631D01*
X99360713Y-88550661D01*
X99285540Y-88682490D01*
X99245728Y-88800144D01*
X99230773Y-88942687D01*
X99229333Y-89039244D01*
X99245834Y-89266790D01*
X99289398Y-89488027D01*
X99308889Y-89551894D01*
X99360733Y-89721474D01*
X99403756Y-89894621D01*
X99418479Y-89971271D01*
X99480956Y-90287984D01*
X99568242Y-90628537D01*
X99670995Y-90961018D01*
X99779873Y-91253512D01*
X99822124Y-91350171D01*
X99903699Y-91516366D01*
X99986045Y-91654756D01*
X100084983Y-91786485D01*
X100216330Y-91932695D01*
X100388530Y-92107230D01*
X100630206Y-92336249D01*
X100834612Y-92504346D01*
X101014410Y-92618976D01*
X101182263Y-92687593D01*
X101350831Y-92717651D01*
X101430427Y-92720583D01*
X101551480Y-92715147D01*
X101658534Y-92693079D01*
X101775856Y-92645734D01*
X101927713Y-92564472D01*
X102021159Y-92510196D01*
X102204478Y-92409535D01*
X102352033Y-92342874D01*
X102449131Y-92316586D01*
X102465562Y-92317385D01*
X102559096Y-92333311D01*
X102694905Y-92353228D01*
X102759112Y-92361862D01*
X102965724Y-92388762D01*
X102483945Y-92639927D01*
X102263394Y-92753414D01*
X102033913Y-92869002D01*
X101824844Y-92972042D01*
X101684666Y-93039018D01*
X101525746Y-93114124D01*
X101388628Y-93180830D01*
X101297912Y-93227118D01*
X101285721Y-93233887D01*
X101215417Y-93272424D01*
X101089673Y-93339541D01*
X100928176Y-93424779D01*
X100798888Y-93492505D01*
X100575139Y-93616084D01*
X100311538Y-93772686D01*
X100020613Y-93953853D01*
X99714890Y-94151125D01*
X99406897Y-94356044D01*
X99109161Y-94560151D01*
X98834209Y-94754986D01*
X98594569Y-94932091D01*
X98402768Y-95083007D01*
X98271458Y-95199151D01*
X98097150Y-95389311D01*
X97983287Y-95563599D01*
X97916743Y-95748046D01*
X97884568Y-95966493D01*
X97885725Y-96183460D01*
X97934314Y-96340988D01*
X98037407Y-96454063D01*
X98142543Y-96513341D01*
X98272563Y-96583327D01*
X98383143Y-96658692D01*
X98455671Y-96703157D01*
X98551533Y-96730372D01*
X98692719Y-96744625D01*
X98848810Y-96749508D01*
X99085784Y-96744844D01*
X99328129Y-96725539D01*
X99554240Y-96694654D01*
X99742512Y-96655252D01*
X99871340Y-96610393D01*
X99885500Y-96602610D01*
X99972526Y-96578011D01*
X100132729Y-96560979D01*
X100354874Y-96552514D01*
X100457000Y-96551750D01*
X100943833Y-96551750D01*
X100957085Y-96414343D01*
X100952742Y-96320691D01*
X100912437Y-96225647D01*
X100824520Y-96104672D01*
X100790672Y-96063864D01*
X100611006Y-95850790D01*
X100713919Y-95779122D01*
X100805940Y-95708275D01*
X100924421Y-95608558D01*
X100986166Y-95553732D01*
X101179663Y-95388402D01*
X101413025Y-95205672D01*
X101675915Y-95012146D01*
X101957993Y-94814421D01*
X102248921Y-94619100D01*
X102538358Y-94432783D01*
X102815967Y-94262070D01*
X103071407Y-94113561D01*
X103294340Y-93993857D01*
X103474426Y-93909559D01*
X103601327Y-93867267D01*
X103633653Y-93863583D01*
X103658202Y-93872026D01*
X103677204Y-93904528D01*
X103691923Y-93971854D01*
X103703621Y-94084767D01*
X103713561Y-94254028D01*
X103723005Y-94490403D01*
X103729266Y-94678500D01*
X103735626Y-94945016D01*
X103737608Y-95193529D01*
X103735382Y-95407312D01*
X103729119Y-95569643D01*
X103719216Y-95662750D01*
X103704840Y-95764117D01*
X103689228Y-95930610D01*
X103673879Y-96142732D01*
X103660294Y-96380986D01*
X103654795Y-96499981D01*
X103644538Y-96751815D01*
X103639425Y-96933711D01*
X103640741Y-97060310D01*
X103649777Y-97146252D01*
X103667818Y-97206178D01*
X103696154Y-97254729D01*
X103724452Y-97291873D01*
X103805739Y-97395361D01*
X103910992Y-97530243D01*
X103983515Y-97623598D01*
X104077904Y-97739114D01*
X104155313Y-97804319D01*
X104248389Y-97837504D01*
X104389779Y-97856954D01*
X104402475Y-97858289D01*
X104608633Y-97876878D01*
X104757950Y-97879003D01*
X104877345Y-97860570D01*
X104993734Y-97817485D01*
X105130545Y-97747548D01*
X105285572Y-97651496D01*
X105465960Y-97522041D01*
X105636352Y-97384787D01*
X105659712Y-97364357D01*
X105835365Y-97208635D01*
X106032191Y-97034145D01*
X106208906Y-96877486D01*
X106216092Y-96871115D01*
X106375056Y-96740313D01*
X106543459Y-96617796D01*
X106689107Y-96526720D01*
X106710860Y-96515230D01*
X106863745Y-96424818D01*
X107009245Y-96318142D01*
X107068934Y-96264750D01*
X107176868Y-96162676D01*
X107317712Y-96036949D01*
X107442000Y-95930763D01*
X107674833Y-95736868D01*
X107971166Y-95897202D01*
X108154525Y-95996390D01*
X108347370Y-96100679D01*
X108503718Y-96185202D01*
X108859671Y-96341666D01*
X109197450Y-96416795D01*
X109515609Y-96410280D01*
X109537739Y-96406648D01*
X109715127Y-96383862D01*
X109930797Y-96367567D01*
X110138419Y-96361251D01*
X110140708Y-96361250D01*
X110420487Y-96345336D01*
X110637684Y-96299054D01*
X110786823Y-96224590D01*
X110862425Y-96124131D01*
X110871000Y-96069669D01*
X110829706Y-95918850D01*
X110708698Y-95762553D01*
X110512284Y-95605716D01*
X110410963Y-95542407D01*
X110269203Y-95453638D01*
X110178265Y-95392627D01*
X107230333Y-95392627D01*
X107193419Y-95438609D01*
X107098575Y-95496277D01*
X106969645Y-95555380D01*
X106830475Y-95605669D01*
X106704909Y-95636894D01*
X106649657Y-95642231D01*
X106527002Y-95653112D01*
X106434806Y-95678972D01*
X106426000Y-95683917D01*
X106353138Y-95704862D01*
X106224034Y-95719873D01*
X106071930Y-95725602D01*
X105872618Y-95716350D01*
X105723906Y-95683283D01*
X105621207Y-95636238D01*
X105508899Y-95555687D01*
X105427124Y-95466345D01*
X105414360Y-95443746D01*
X105400175Y-95374586D01*
X105388102Y-95245016D01*
X105378417Y-95072150D01*
X105371397Y-94873105D01*
X105367317Y-94664998D01*
X105366453Y-94464944D01*
X105369082Y-94290060D01*
X105375479Y-94157461D01*
X105385920Y-94084264D01*
X105392292Y-94075250D01*
X105436491Y-94099556D01*
X105523538Y-94161967D01*
X105593375Y-94216243D01*
X105732113Y-94319228D01*
X105899005Y-94432370D01*
X106002439Y-94497390D01*
X106147424Y-94590165D01*
X106326434Y-94712415D01*
X106506691Y-94841598D01*
X106552772Y-94875828D01*
X106718486Y-94998585D01*
X106882571Y-95117590D01*
X107016882Y-95212504D01*
X107050416Y-95235439D01*
X107152889Y-95310969D01*
X107218048Y-95371352D01*
X107230333Y-95392627D01*
X110178265Y-95392627D01*
X110089525Y-95333091D01*
X109901128Y-95200604D01*
X109811771Y-95135329D01*
X109670863Y-95033775D01*
X109474746Y-94896622D01*
X109239079Y-94734603D01*
X108979521Y-94558445D01*
X108711732Y-94378879D01*
X108585000Y-94294716D01*
X108263280Y-94078657D01*
X107968539Y-93874600D01*
X107707985Y-93687957D01*
X107488823Y-93524136D01*
X107318260Y-93388549D01*
X107203503Y-93286606D01*
X107151757Y-93223715D01*
X107149727Y-93217193D01*
X107177798Y-93176901D01*
X107256858Y-93100557D01*
X107370708Y-93003623D01*
X107388426Y-92989349D01*
X107549586Y-92855541D01*
X107719862Y-92706679D01*
X107837315Y-92598573D01*
X107932671Y-92498892D01*
X108067551Y-92346283D01*
X108230177Y-92155175D01*
X108408777Y-91939999D01*
X108591575Y-91715184D01*
X108766796Y-91495159D01*
X108922666Y-91294354D01*
X109047410Y-91127198D01*
X109105658Y-91044265D01*
X109204126Y-90863280D01*
X109307800Y-90608029D01*
X109413276Y-90288475D01*
X109417967Y-90271588D01*
X107484333Y-90271588D01*
X107466381Y-90354351D01*
X107418884Y-90489418D01*
X107351383Y-90653985D01*
X107273419Y-90825252D01*
X107194533Y-90980415D01*
X107168149Y-91027250D01*
X107114286Y-91126872D01*
X107044909Y-91264421D01*
X107005353Y-91346317D01*
X106896043Y-91521023D01*
X106735885Y-91705070D01*
X106655151Y-91781614D01*
X106406002Y-92003677D01*
X106376570Y-91893628D01*
X106333978Y-91816256D01*
X106244556Y-91701239D01*
X106124049Y-91567970D01*
X106058947Y-91502393D01*
X105770755Y-91221206D01*
X106090373Y-91171788D01*
X106359302Y-91111491D01*
X106402342Y-91094981D01*
X103715857Y-91094981D01*
X103704698Y-91127558D01*
X103666654Y-91137587D01*
X103586111Y-91126285D01*
X103447452Y-91094869D01*
X103335666Y-91068247D01*
X103215618Y-91045745D01*
X103049333Y-91021915D01*
X102891166Y-91003850D01*
X102734136Y-90982654D01*
X102606455Y-90955079D01*
X102535583Y-90927067D01*
X102535321Y-90926858D01*
X102491118Y-90868421D01*
X102424830Y-90755261D01*
X102347587Y-90609676D01*
X102270517Y-90453964D01*
X102204750Y-90310426D01*
X102161417Y-90201358D01*
X102150333Y-90155505D01*
X102134492Y-90094712D01*
X102092485Y-89979001D01*
X102032590Y-89830798D01*
X102016707Y-89793433D01*
X101947115Y-89624573D01*
X101894630Y-89475974D01*
X101851780Y-89320957D01*
X101811094Y-89132845D01*
X101770105Y-88912943D01*
X101752513Y-88747949D01*
X101778844Y-88633762D01*
X101861622Y-88549922D01*
X102013373Y-88475967D01*
X102045193Y-88463568D01*
X102125999Y-88435224D01*
X102199025Y-88420543D01*
X102283389Y-88420718D01*
X102398206Y-88436944D01*
X102562592Y-88470413D01*
X102722244Y-88505828D01*
X103021587Y-88578522D01*
X103241799Y-88645098D01*
X103388028Y-88707530D01*
X103465420Y-88767795D01*
X103479593Y-88796380D01*
X103500789Y-88869588D01*
X103535033Y-88977922D01*
X103537238Y-88984667D01*
X103559395Y-89075958D01*
X103555177Y-89121188D01*
X103551729Y-89122250D01*
X103503763Y-89141853D01*
X103400393Y-89194453D01*
X103259549Y-89270729D01*
X103175525Y-89317747D01*
X102936216Y-89469252D01*
X102733009Y-89629524D01*
X102576601Y-89787870D01*
X102477690Y-89933595D01*
X102446666Y-90046378D01*
X102488119Y-90176506D01*
X102611014Y-90318000D01*
X102813153Y-90469071D01*
X103092340Y-90627927D01*
X103260664Y-90709959D01*
X103454833Y-90801917D01*
X103584413Y-90869121D01*
X103662318Y-90920897D01*
X103701464Y-90966574D01*
X103714766Y-91015479D01*
X103715748Y-91038640D01*
X103715857Y-91094981D01*
X106402342Y-91094981D01*
X106589363Y-91023242D01*
X106769300Y-90913988D01*
X106887862Y-90790673D01*
X106933795Y-90660245D01*
X106934000Y-90651078D01*
X106898646Y-90541949D01*
X106805647Y-90417963D01*
X106674593Y-90298944D01*
X106525074Y-90204718D01*
X106468333Y-90179855D01*
X106303773Y-90111901D01*
X106121309Y-90027956D01*
X105939888Y-89937805D01*
X105778452Y-89851231D01*
X105655946Y-89778018D01*
X105591317Y-89727951D01*
X105589916Y-89726194D01*
X105549514Y-89631385D01*
X105537000Y-89539774D01*
X105537000Y-89423147D01*
X105759250Y-89485541D01*
X106028925Y-89562710D01*
X106241711Y-89628327D01*
X106422778Y-89691706D01*
X106597292Y-89762158D01*
X106790421Y-89848997D01*
X106965750Y-89931978D01*
X107180678Y-90037114D01*
X107328911Y-90116057D01*
X107421532Y-90176068D01*
X107469625Y-90224403D01*
X107484274Y-90268321D01*
X107484333Y-90271588D01*
X109417967Y-90271588D01*
X109517148Y-89914579D01*
X109580037Y-89656449D01*
X109629026Y-89439220D01*
X109659105Y-89283258D01*
X109671991Y-89167713D01*
X109669398Y-89071736D01*
X109653042Y-88974478D01*
X109640596Y-88920341D01*
X109569580Y-88690101D01*
X109481419Y-88534602D01*
X109368604Y-88444466D01*
X109232497Y-88410893D01*
X109013075Y-88435920D01*
X108774378Y-88540049D01*
X108520383Y-88720970D01*
X108255070Y-88976376D01*
X108251891Y-88979821D01*
X108127367Y-89118044D01*
X108027819Y-89234405D01*
X107965313Y-89314438D01*
X107950000Y-89341851D01*
X107936044Y-89371827D01*
X107889019Y-89362964D01*
X107801186Y-89310755D01*
X107664809Y-89210697D01*
X107496162Y-89077612D01*
X106847333Y-88610416D01*
X106141852Y-88205896D01*
X105932505Y-88103092D01*
X105484232Y-87890615D01*
X105510150Y-87733849D01*
X105527541Y-87612935D01*
X105536234Y-87521814D01*
X105536445Y-87513583D01*
X105548805Y-87485409D01*
X105594686Y-87468154D01*
X105687896Y-87460326D01*
X105842243Y-87460434D01*
X105991994Y-87464367D01*
X106549136Y-87442250D01*
X107080049Y-87339916D01*
X107336166Y-87258591D01*
X107485216Y-87209268D01*
X107623443Y-87170776D01*
X107674833Y-87159637D01*
X107793330Y-87121763D01*
X107962674Y-87045942D01*
X108164264Y-86942662D01*
X108379500Y-86822408D01*
X108589782Y-86695666D01*
X108776512Y-86572923D01*
X108921088Y-86464664D01*
X108946939Y-86442455D01*
X109095940Y-86289767D01*
X109170145Y-86155889D01*
X109172494Y-86026079D01*
X109105924Y-85885594D01*
X109068396Y-85833147D01*
X108959125Y-85689886D01*
X108041813Y-85717124D01*
X107124500Y-85744363D01*
X106637666Y-85567289D01*
X106429321Y-85491612D01*
X106232255Y-85420216D01*
X106070036Y-85361628D01*
X105973539Y-85326980D01*
X105854766Y-85276732D01*
X105769122Y-85226413D01*
X105752976Y-85211609D01*
X105735064Y-85148666D01*
X105721083Y-85020493D01*
X105711219Y-84846444D01*
X105705659Y-84645871D01*
X105704586Y-84438129D01*
X105708188Y-84242571D01*
X105716650Y-84078550D01*
X105730157Y-83965421D01*
X105740678Y-83930176D01*
X105805024Y-83840589D01*
X105871745Y-83770632D01*
X105944302Y-83651886D01*
X105953995Y-83498921D01*
X105900360Y-83334748D01*
X105881265Y-83301417D01*
X105680580Y-83032424D01*
X105446578Y-82810449D01*
X105192970Y-82644797D01*
X104933466Y-82544773D01*
X104727283Y-82518250D01*
X104606904Y-82524323D01*
G37*
X104606904Y-82524323D02*
X104503566Y-82549398D01*
X104390805Y-82603763D01*
X104242157Y-82697704D01*
X104209957Y-82719333D01*
X104026263Y-82853814D01*
X103826885Y-83015917D01*
X103653908Y-83171366D01*
X103648551Y-83176554D01*
X103481388Y-83356186D01*
X103381955Y-83512251D01*
X103344128Y-83662590D01*
X103361785Y-83825042D01*
X103392100Y-83923708D01*
X103438528Y-84088476D01*
X103471372Y-84266667D01*
X103475444Y-84302975D01*
X103493730Y-84500199D01*
X103277115Y-84369564D01*
X103128239Y-84268362D01*
X102986159Y-84153502D01*
X102922862Y-84092875D01*
X102867389Y-84035233D01*
X102817293Y-83995225D01*
X102758377Y-83972011D01*
X102676447Y-83964752D01*
X102557306Y-83972610D01*
X102386760Y-83994745D01*
X102150612Y-84030319D01*
X102071068Y-84042532D01*
X101871497Y-84084237D01*
X101631353Y-84151647D01*
X101367878Y-84238090D01*
X101098319Y-84336894D01*
X100839919Y-84441385D01*
X100609921Y-84544892D01*
X100425570Y-84640742D01*
X100304110Y-84722263D01*
X100296138Y-84729324D01*
X100100054Y-84941801D01*
X99987416Y-85141156D01*
X99957815Y-85325964D01*
X100010844Y-85494802D01*
X100146094Y-85646247D01*
X100363157Y-85778875D01*
X100626333Y-85880410D01*
X100805641Y-85939634D01*
X100994069Y-86005969D01*
X101070833Y-86034500D01*
X101208420Y-86074914D01*
X101398500Y-86115083D01*
X101609119Y-86148675D01*
X101705833Y-86160359D01*
X101911296Y-86182447D01*
X102107883Y-86203937D01*
X102265407Y-86221514D01*
X102319666Y-86227750D01*
X102448135Y-86253829D01*
X102622862Y-86303650D01*
X102812163Y-86367890D01*
X102870000Y-86389719D01*
X103047191Y-86457224D01*
X103208895Y-86516603D01*
X103328459Y-86558145D01*
X103356833Y-86567096D01*
X103421226Y-86590787D01*
X103462083Y-86627897D01*
X103488237Y-86697956D01*
X103508520Y-86820492D01*
X103522171Y-86932665D01*
X103537094Y-87091002D01*
X103542079Y-87215017D01*
X103536403Y-87282378D01*
X103533665Y-87287362D01*
X103481641Y-87294413D01*
X103369234Y-87288166D01*
X103219440Y-87270024D01*
X103198994Y-87266953D01*
X102655527Y-87195545D01*
X102162589Y-87155291D01*
X101726318Y-87146190D01*
X101352851Y-87168240D01*
X101048326Y-87221437D01*
X100902353Y-87267873D01*
X100662785Y-87386065D01*
X100394594Y-87558024D01*
X100117063Y-87767704D01*
X99849472Y-87999062D01*
X99611106Y-88236052D01*
X99421245Y-88462631D01*
X99360713Y-88550661D01*
X99285540Y-88682490D01*
X99245728Y-88800144D01*
X99230773Y-88942687D01*
X99229333Y-89039244D01*
X99245834Y-89266790D01*
X99289398Y-89488027D01*
X99308889Y-89551894D01*
X99360733Y-89721474D01*
X99403756Y-89894621D01*
X99418479Y-89971271D01*
X99480956Y-90287984D01*
X99568242Y-90628537D01*
X99670995Y-90961018D01*
X99779873Y-91253512D01*
X99822124Y-91350171D01*
X99903699Y-91516366D01*
X99986045Y-91654756D01*
X100084983Y-91786485D01*
X100216330Y-91932695D01*
X100388530Y-92107230D01*
X100630206Y-92336249D01*
X100834612Y-92504346D01*
X101014410Y-92618976D01*
X101182263Y-92687593D01*
X101350831Y-92717651D01*
X101430427Y-92720583D01*
X101551480Y-92715147D01*
X101658534Y-92693079D01*
X101775856Y-92645734D01*
X101927713Y-92564472D01*
X102021159Y-92510196D01*
X102204478Y-92409535D01*
X102352033Y-92342874D01*
X102449131Y-92316586D01*
X102465562Y-92317385D01*
X102559096Y-92333311D01*
X102694905Y-92353228D01*
X102759112Y-92361862D01*
X102965724Y-92388762D01*
X102483945Y-92639927D01*
X102263394Y-92753414D01*
X102033913Y-92869002D01*
X101824844Y-92972042D01*
X101684666Y-93039018D01*
X101525746Y-93114124D01*
X101388628Y-93180830D01*
X101297912Y-93227118D01*
X101285721Y-93233887D01*
X101215417Y-93272424D01*
X101089673Y-93339541D01*
X100928176Y-93424779D01*
X100798888Y-93492505D01*
X100575139Y-93616084D01*
X100311538Y-93772686D01*
X100020613Y-93953853D01*
X99714890Y-94151125D01*
X99406897Y-94356044D01*
X99109161Y-94560151D01*
X98834209Y-94754986D01*
X98594569Y-94932091D01*
X98402768Y-95083007D01*
X98271458Y-95199151D01*
X98097150Y-95389311D01*
X97983287Y-95563599D01*
X97916743Y-95748046D01*
X97884568Y-95966493D01*
X97885725Y-96183460D01*
X97934314Y-96340988D01*
X98037407Y-96454063D01*
X98142543Y-96513341D01*
X98272563Y-96583327D01*
X98383143Y-96658692D01*
X98455671Y-96703157D01*
X98551533Y-96730372D01*
X98692719Y-96744625D01*
X98848810Y-96749508D01*
X99085784Y-96744844D01*
X99328129Y-96725539D01*
X99554240Y-96694654D01*
X99742512Y-96655252D01*
X99871340Y-96610393D01*
X99885500Y-96602610D01*
X99972526Y-96578011D01*
X100132729Y-96560979D01*
X100354874Y-96552514D01*
X100457000Y-96551750D01*
X100943833Y-96551750D01*
X100957085Y-96414343D01*
X100952742Y-96320691D01*
X100912437Y-96225647D01*
X100824520Y-96104672D01*
X100790672Y-96063864D01*
X100611006Y-95850790D01*
X100713919Y-95779122D01*
X100805940Y-95708275D01*
X100924421Y-95608558D01*
X100986166Y-95553732D01*
X101179663Y-95388402D01*
X101413025Y-95205672D01*
X101675915Y-95012146D01*
X101957993Y-94814421D01*
X102248921Y-94619100D01*
X102538358Y-94432783D01*
X102815967Y-94262070D01*
X103071407Y-94113561D01*
X103294340Y-93993857D01*
X103474426Y-93909559D01*
X103601327Y-93867267D01*
X103633653Y-93863583D01*
X103658202Y-93872026D01*
X103677204Y-93904528D01*
X103691923Y-93971854D01*
X103703621Y-94084767D01*
X103713561Y-94254028D01*
X103723005Y-94490403D01*
X103729266Y-94678500D01*
X103735626Y-94945016D01*
X103737608Y-95193529D01*
X103735382Y-95407312D01*
X103729119Y-95569643D01*
X103719216Y-95662750D01*
X103704840Y-95764117D01*
X103689228Y-95930610D01*
X103673879Y-96142732D01*
X103660294Y-96380986D01*
X103654795Y-96499981D01*
X103644538Y-96751815D01*
X103639425Y-96933711D01*
X103640741Y-97060310D01*
X103649777Y-97146252D01*
X103667818Y-97206178D01*
X103696154Y-97254729D01*
X103724452Y-97291873D01*
X103805739Y-97395361D01*
X103910992Y-97530243D01*
X103983515Y-97623598D01*
X104077904Y-97739114D01*
X104155313Y-97804319D01*
X104248389Y-97837504D01*
X104389779Y-97856954D01*
X104402475Y-97858289D01*
X104608633Y-97876878D01*
X104757950Y-97879003D01*
X104877345Y-97860570D01*
X104993734Y-97817485D01*
X105130545Y-97747548D01*
X105285572Y-97651496D01*
X105465960Y-97522041D01*
X105636352Y-97384787D01*
X105659712Y-97364357D01*
X105835365Y-97208635D01*
X106032191Y-97034145D01*
X106208906Y-96877486D01*
X106216092Y-96871115D01*
X106375056Y-96740313D01*
X106543459Y-96617796D01*
X106689107Y-96526720D01*
X106710860Y-96515230D01*
X106863745Y-96424818D01*
X107009245Y-96318142D01*
X107068934Y-96264750D01*
X107176868Y-96162676D01*
X107317712Y-96036949D01*
X107442000Y-95930763D01*
X107674833Y-95736868D01*
X107971166Y-95897202D01*
X108154525Y-95996390D01*
X108347370Y-96100679D01*
X108503718Y-96185202D01*
X108859671Y-96341666D01*
X109197450Y-96416795D01*
X109515609Y-96410280D01*
X109537739Y-96406648D01*
X109715127Y-96383862D01*
X109930797Y-96367567D01*
X110138419Y-96361251D01*
X110140708Y-96361250D01*
X110420487Y-96345336D01*
X110637684Y-96299054D01*
X110786823Y-96224590D01*
X110862425Y-96124131D01*
X110871000Y-96069669D01*
X110829706Y-95918850D01*
X110708698Y-95762553D01*
X110512284Y-95605716D01*
X110410963Y-95542407D01*
X110269203Y-95453638D01*
X110178265Y-95392627D01*
X107230333Y-95392627D01*
X107193419Y-95438609D01*
X107098575Y-95496277D01*
X106969645Y-95555380D01*
X106830475Y-95605669D01*
X106704909Y-95636894D01*
X106649657Y-95642231D01*
X106527002Y-95653112D01*
X106434806Y-95678972D01*
X106426000Y-95683917D01*
X106353138Y-95704862D01*
X106224034Y-95719873D01*
X106071930Y-95725602D01*
X105872618Y-95716350D01*
X105723906Y-95683283D01*
X105621207Y-95636238D01*
X105508899Y-95555687D01*
X105427124Y-95466345D01*
X105414360Y-95443746D01*
X105400175Y-95374586D01*
X105388102Y-95245016D01*
X105378417Y-95072150D01*
X105371397Y-94873105D01*
X105367317Y-94664998D01*
X105366453Y-94464944D01*
X105369082Y-94290060D01*
X105375479Y-94157461D01*
X105385920Y-94084264D01*
X105392292Y-94075250D01*
X105436491Y-94099556D01*
X105523538Y-94161967D01*
X105593375Y-94216243D01*
X105732113Y-94319228D01*
X105899005Y-94432370D01*
X106002439Y-94497390D01*
X106147424Y-94590165D01*
X106326434Y-94712415D01*
X106506691Y-94841598D01*
X106552772Y-94875828D01*
X106718486Y-94998585D01*
X106882571Y-95117590D01*
X107016882Y-95212504D01*
X107050416Y-95235439D01*
X107152889Y-95310969D01*
X107218048Y-95371352D01*
X107230333Y-95392627D01*
X110178265Y-95392627D01*
X110089525Y-95333091D01*
X109901128Y-95200604D01*
X109811771Y-95135329D01*
X109670863Y-95033775D01*
X109474746Y-94896622D01*
X109239079Y-94734603D01*
X108979521Y-94558445D01*
X108711732Y-94378879D01*
X108585000Y-94294716D01*
X108263280Y-94078657D01*
X107968539Y-93874600D01*
X107707985Y-93687957D01*
X107488823Y-93524136D01*
X107318260Y-93388549D01*
X107203503Y-93286606D01*
X107151757Y-93223715D01*
X107149727Y-93217193D01*
X107177798Y-93176901D01*
X107256858Y-93100557D01*
X107370708Y-93003623D01*
X107388426Y-92989349D01*
X107549586Y-92855541D01*
X107719862Y-92706679D01*
X107837315Y-92598573D01*
X107932671Y-92498892D01*
X108067551Y-92346283D01*
X108230177Y-92155175D01*
X108408777Y-91939999D01*
X108591575Y-91715184D01*
X108766796Y-91495159D01*
X108922666Y-91294354D01*
X109047410Y-91127198D01*
X109105658Y-91044265D01*
X109204126Y-90863280D01*
X109307800Y-90608029D01*
X109413276Y-90288475D01*
X109417967Y-90271588D01*
X107484333Y-90271588D01*
X107466381Y-90354351D01*
X107418884Y-90489418D01*
X107351383Y-90653985D01*
X107273419Y-90825252D01*
X107194533Y-90980415D01*
X107168149Y-91027250D01*
X107114286Y-91126872D01*
X107044909Y-91264421D01*
X107005353Y-91346317D01*
X106896043Y-91521023D01*
X106735885Y-91705070D01*
X106655151Y-91781614D01*
X106406002Y-92003677D01*
X106376570Y-91893628D01*
X106333978Y-91816256D01*
X106244556Y-91701239D01*
X106124049Y-91567970D01*
X106058947Y-91502393D01*
X105770755Y-91221206D01*
X106090373Y-91171788D01*
X106359302Y-91111491D01*
X106402342Y-91094981D01*
X103715857Y-91094981D01*
X103704698Y-91127558D01*
X103666654Y-91137587D01*
X103586111Y-91126285D01*
X103447452Y-91094869D01*
X103335666Y-91068247D01*
X103215618Y-91045745D01*
X103049333Y-91021915D01*
X102891166Y-91003850D01*
X102734136Y-90982654D01*
X102606455Y-90955079D01*
X102535583Y-90927067D01*
X102535321Y-90926858D01*
X102491118Y-90868421D01*
X102424830Y-90755261D01*
X102347587Y-90609676D01*
X102270517Y-90453964D01*
X102204750Y-90310426D01*
X102161417Y-90201358D01*
X102150333Y-90155505D01*
X102134492Y-90094712D01*
X102092485Y-89979001D01*
X102032590Y-89830798D01*
X102016707Y-89793433D01*
X101947115Y-89624573D01*
X101894630Y-89475974D01*
X101851780Y-89320957D01*
X101811094Y-89132845D01*
X101770105Y-88912943D01*
X101752513Y-88747949D01*
X101778844Y-88633762D01*
X101861622Y-88549922D01*
X102013373Y-88475967D01*
X102045193Y-88463568D01*
X102125999Y-88435224D01*
X102199025Y-88420543D01*
X102283389Y-88420718D01*
X102398206Y-88436944D01*
X102562592Y-88470413D01*
X102722244Y-88505828D01*
X103021587Y-88578522D01*
X103241799Y-88645098D01*
X103388028Y-88707530D01*
X103465420Y-88767795D01*
X103479593Y-88796380D01*
X103500789Y-88869588D01*
X103535033Y-88977922D01*
X103537238Y-88984667D01*
X103559395Y-89075958D01*
X103555177Y-89121188D01*
X103551729Y-89122250D01*
X103503763Y-89141853D01*
X103400393Y-89194453D01*
X103259549Y-89270729D01*
X103175525Y-89317747D01*
X102936216Y-89469252D01*
X102733009Y-89629524D01*
X102576601Y-89787870D01*
X102477690Y-89933595D01*
X102446666Y-90046378D01*
X102488119Y-90176506D01*
X102611014Y-90318000D01*
X102813153Y-90469071D01*
X103092340Y-90627927D01*
X103260664Y-90709959D01*
X103454833Y-90801917D01*
X103584413Y-90869121D01*
X103662318Y-90920897D01*
X103701464Y-90966574D01*
X103714766Y-91015479D01*
X103715748Y-91038640D01*
X103715857Y-91094981D01*
X106402342Y-91094981D01*
X106589363Y-91023242D01*
X106769300Y-90913988D01*
X106887862Y-90790673D01*
X106933795Y-90660245D01*
X106934000Y-90651078D01*
X106898646Y-90541949D01*
X106805647Y-90417963D01*
X106674593Y-90298944D01*
X106525074Y-90204718D01*
X106468333Y-90179855D01*
X106303773Y-90111901D01*
X106121309Y-90027956D01*
X105939888Y-89937805D01*
X105778452Y-89851231D01*
X105655946Y-89778018D01*
X105591317Y-89727951D01*
X105589916Y-89726194D01*
X105549514Y-89631385D01*
X105537000Y-89539774D01*
X105537000Y-89423147D01*
X105759250Y-89485541D01*
X106028925Y-89562710D01*
X106241711Y-89628327D01*
X106422778Y-89691706D01*
X106597292Y-89762158D01*
X106790421Y-89848997D01*
X106965750Y-89931978D01*
X107180678Y-90037114D01*
X107328911Y-90116057D01*
X107421532Y-90176068D01*
X107469625Y-90224403D01*
X107484274Y-90268321D01*
X107484333Y-90271588D01*
X109417967Y-90271588D01*
X109517148Y-89914579D01*
X109580037Y-89656449D01*
X109629026Y-89439220D01*
X109659105Y-89283258D01*
X109671991Y-89167713D01*
X109669398Y-89071736D01*
X109653042Y-88974478D01*
X109640596Y-88920341D01*
X109569580Y-88690101D01*
X109481419Y-88534602D01*
X109368604Y-88444466D01*
X109232497Y-88410893D01*
X109013075Y-88435920D01*
X108774378Y-88540049D01*
X108520383Y-88720970D01*
X108255070Y-88976376D01*
X108251891Y-88979821D01*
X108127367Y-89118044D01*
X108027819Y-89234405D01*
X107965313Y-89314438D01*
X107950000Y-89341851D01*
X107936044Y-89371827D01*
X107889019Y-89362964D01*
X107801186Y-89310755D01*
X107664809Y-89210697D01*
X107496162Y-89077612D01*
X106847333Y-88610416D01*
X106141852Y-88205896D01*
X105932505Y-88103092D01*
X105484232Y-87890615D01*
X105510150Y-87733849D01*
X105527541Y-87612935D01*
X105536234Y-87521814D01*
X105536445Y-87513583D01*
X105548805Y-87485409D01*
X105594686Y-87468154D01*
X105687896Y-87460326D01*
X105842243Y-87460434D01*
X105991994Y-87464367D01*
X106549136Y-87442250D01*
X107080049Y-87339916D01*
X107336166Y-87258591D01*
X107485216Y-87209268D01*
X107623443Y-87170776D01*
X107674833Y-87159637D01*
X107793330Y-87121763D01*
X107962674Y-87045942D01*
X108164264Y-86942662D01*
X108379500Y-86822408D01*
X108589782Y-86695666D01*
X108776512Y-86572923D01*
X108921088Y-86464664D01*
X108946939Y-86442455D01*
X109095940Y-86289767D01*
X109170145Y-86155889D01*
X109172494Y-86026079D01*
X109105924Y-85885594D01*
X109068396Y-85833147D01*
X108959125Y-85689886D01*
X108041813Y-85717124D01*
X107124500Y-85744363D01*
X106637666Y-85567289D01*
X106429321Y-85491612D01*
X106232255Y-85420216D01*
X106070036Y-85361628D01*
X105973539Y-85326980D01*
X105854766Y-85276732D01*
X105769122Y-85226413D01*
X105752976Y-85211609D01*
X105735064Y-85148666D01*
X105721083Y-85020493D01*
X105711219Y-84846444D01*
X105705659Y-84645871D01*
X105704586Y-84438129D01*
X105708188Y-84242571D01*
X105716650Y-84078550D01*
X105730157Y-83965421D01*
X105740678Y-83930176D01*
X105805024Y-83840589D01*
X105871745Y-83770632D01*
X105944302Y-83651886D01*
X105953995Y-83498921D01*
X105900360Y-83334748D01*
X105881265Y-83301417D01*
X105680580Y-83032424D01*
X105446578Y-82810449D01*
X105192970Y-82644797D01*
X104933466Y-82544773D01*
X104727283Y-82518250D01*
X104606904Y-82524323D01*
%TD*%
D11*
%TO.P,U0,24*%
%TO.N,N/C*%
X158432500Y-48736250D03*
%TO.P,U0,12*%
X143192500Y-76676250D03*
%TO.P,U0,23*%
%TO.N,Net-(J0-Pad1)*%
X158432500Y-51276250D03*
%TO.P,U0,22*%
%TO.N,N/C*%
X158432500Y-53816250D03*
%TO.P,U0,21*%
%TO.N,Net-(J0-Pad2)*%
X158432500Y-56356250D03*
%TO.P,U0,20*%
%TO.N,Net-(J0-Pad3)*%
X158432500Y-58896250D03*
%TO.P,U0,19*%
%TO.N,N/C*%
X158432500Y-61436250D03*
%TO.P,U0,18*%
%TO.N,Net-(SW4-Pad2)*%
X158432500Y-63976250D03*
%TO.P,U0,17*%
%TO.N,Net-(SW5-Pad2)*%
X158432500Y-66516250D03*
%TO.P,U0,16*%
%TO.N,Net-(SW7-Pad2)*%
X158432500Y-69056250D03*
%TO.P,U0,15*%
%TO.N,Net-(SW9-Pad2)*%
X158432500Y-71596250D03*
%TO.P,U0,14*%
%TO.N,Net-(SW8-Pad2)*%
X158432500Y-74136250D03*
%TO.P,U0,13*%
%TO.N,Net-(SW6-Pad2)*%
X158432500Y-76676250D03*
%TO.P,U0,11*%
%TO.N,Net-(SW3-Pad2)*%
X143192500Y-74136250D03*
%TO.P,U0,10*%
%TO.N,Net-(SW2-Pad2)*%
X143192500Y-71596250D03*
%TO.P,U0,9*%
%TO.N,Net-(SW1-Pad2)*%
X143192500Y-69056250D03*
%TO.P,U0,8*%
%TO.N,Net-(SW0-Pad2)*%
X143192500Y-66516250D03*
%TO.P,U0,7*%
%TO.N,Net-(SW0-Pad1)*%
X143192500Y-63976250D03*
%TO.P,U0,6*%
%TO.N,N/C*%
X143192500Y-61436250D03*
%TO.P,U0,5*%
X143192500Y-58896250D03*
%TO.P,U0,4*%
X143192500Y-56356250D03*
%TO.P,U0,3*%
X143192500Y-53816250D03*
%TO.P,U0,2*%
X143192500Y-51276250D03*
D12*
%TO.P,U0,1*%
X143192500Y-48736250D03*
%TD*%
D13*
%TO.P,RIGHT,2*%
%TO.N,Net-(SW9-Pad2)*%
X214083172Y-93134715D03*
%TO.P,RIGHT,1*%
%TO.N,Net-(SW0-Pad1)*%
X219559401Y-89037762D03*
%TD*%
%TO.P,DOWN,2*%
%TO.N,Net-(SW8-Pad2)*%
X195682285Y-98065218D03*
%TO.P,DOWN,1*%
%TO.N,Net-(SW0-Pad1)*%
X201158514Y-93968265D03*
%TD*%
%TO.P,UP,2*%
%TO.N,Net-(SW7-Pad2)*%
X190751782Y-79664331D03*
%TO.P,UP,1*%
%TO.N,Net-(SW0-Pad1)*%
X196228011Y-75567378D03*
%TD*%
%TO.P,LEFT,2*%
%TO.N,Net-(SW6-Pad2)*%
X177281398Y-102995721D03*
%TO.P,LEFT,1*%
%TO.N,Net-(SW0-Pad1)*%
X182757627Y-98898768D03*
%TD*%
%TO.P,ENTER,2*%
%TO.N,Net-(SW5-Pad2)*%
X194691000Y-51816000D03*
%TO.P,ENTER,1*%
%TO.N,Net-(SW0-Pad1)*%
X201041000Y-49276000D03*
%TD*%
%TO.P,ESC,2*%
%TO.N,Net-(SW4-Pad2)*%
X175641000Y-51816000D03*
%TO.P,ESC,1*%
%TO.N,Net-(SW0-Pad1)*%
X181991000Y-49276000D03*
%TD*%
%TO.P,BOMB,2*%
%TO.N,Net-(SW3-Pad2)*%
X143891000Y-107696000D03*
%TO.P,BOMB,1*%
%TO.N,Net-(SW0-Pad1)*%
X146431000Y-114046000D03*
%TD*%
%TO.P,RAPID,2*%
%TO.N,Net-(SW2-Pad2)*%
X120845498Y-69534576D03*
%TO.P,RAPID,1*%
%TO.N,Net-(SW0-Pad1)*%
X127636527Y-68724625D03*
%TD*%
%TO.P,SHOOT,2*%
%TO.N,Net-(SW1-Pad2)*%
X102444611Y-64604073D03*
%TO.P,SHOOT,1*%
%TO.N,Net-(SW0-Pad1)*%
X109235640Y-63794122D03*
%TD*%
%TO.P,SLOW,2*%
%TO.N,Net-(SW0-Pad2)*%
X84043724Y-59673571D03*
%TO.P,SLOW,1*%
%TO.N,Net-(SW0-Pad1)*%
X90834753Y-58863620D03*
%TD*%
D14*
%TO.P,J0,3*%
%TO.N,Net-(J0-Pad3)*%
X167132000Y-50038000D03*
%TO.P,J0,2*%
%TO.N,Net-(J0-Pad2)*%
X164592000Y-50038000D03*
D15*
%TO.P,J0,1*%
%TO.N,Net-(J0-Pad1)*%
X162052000Y-50038000D03*
%TD*%
D16*
%TO.N,Net-(J0-Pad3)*%
X158432500Y-58737500D02*
X158432500Y-58896250D01*
X167132000Y-50038000D02*
X158432500Y-58737500D01*
%TO.N,Net-(J0-Pad2)*%
X158432500Y-56197500D02*
X158432500Y-56356250D01*
X164592000Y-50038000D02*
X158432500Y-56197500D01*
%TO.N,Net-(J0-Pad1)*%
X159670750Y-50038000D02*
X158432500Y-51276250D01*
X162052000Y-50038000D02*
X159670750Y-50038000D01*
%TO.N,Net-(SW0-Pad1)*%
X141287500Y-65881250D02*
X143192500Y-63976250D01*
X138444125Y-68724625D02*
X143192500Y-63976250D01*
X127636527Y-68724625D02*
X138444125Y-68724625D01*
X122706024Y-63794122D02*
X127636527Y-68724625D01*
X109235640Y-63794122D02*
X122706024Y-63794122D01*
X104305138Y-58863620D02*
X109235640Y-63794122D01*
X90834753Y-58863620D02*
X104305138Y-58863620D01*
X187688130Y-93968265D02*
X182757627Y-98898768D01*
X201158514Y-93968265D02*
X187688130Y-93968265D01*
X181991000Y-49276000D02*
X201041000Y-49276000D01*
X138444125Y-75737875D02*
X138444125Y-68724625D01*
X146431000Y-83724750D02*
X138444125Y-75737875D01*
X146431000Y-114046000D02*
X146431000Y-83724750D01*
X161578232Y-98898768D02*
X182757627Y-98898768D01*
X146431000Y-114046000D02*
X161578232Y-98898768D01*
X201041000Y-70754389D02*
X196228011Y-75567378D01*
X201041000Y-49276000D02*
X201041000Y-70754389D01*
X219421639Y-88900000D02*
X219559401Y-89037762D01*
X206226779Y-88900000D02*
X219421639Y-88900000D01*
X201158514Y-93968265D02*
X206226779Y-88900000D01*
X201158514Y-82889764D02*
X201158514Y-93968265D01*
X196228011Y-77959261D02*
X201158514Y-82889764D01*
X196228011Y-75567378D02*
X196228011Y-77959261D01*
%TD*%
M02*
