M48
; DRILL file {KiCad (5.1.10-1-10_14)} date Tuesday, June 08, 2021 at 08:47:08 AM
; FORMAT={-:-/ absolute / inch / decimal}
; #@! TF.CreationDate,2021-06-08T08:47:08+02:00
; #@! TF.GenerationSoftware,Kicad,Pcbnew,(5.1.10-1-10_14)
; #@! TF.FileFunction,Plated,1,2,PTH
FMAT,2
INCH
T1C0.0394
T2C0.0430
T3C0.0590
%
G90
G05
T1
X6.38Y-1.97
X6.48Y-1.97
X6.58Y-1.97
T2
X5.6375Y-1.9187
X5.6375Y-2.0187
X5.6375Y-2.1187
X5.6375Y-2.2188
X5.6375Y-2.3188
X5.6375Y-2.4187
X5.6375Y-2.5187
X5.6375Y-2.6187
X5.6375Y-2.7188
X5.6375Y-2.8188
X5.6375Y-2.9187
X5.6375Y-3.0187
X6.2375Y-1.9187
X6.2375Y-2.0187
X6.2375Y-2.1187
X6.2375Y-2.2188
X6.2375Y-2.3188
X6.2375Y-2.4187
X6.2375Y-2.5187
X6.2375Y-2.6187
X6.2375Y-2.7188
X6.2375Y-2.8188
X6.2375Y-2.9187
X6.2375Y-3.0187
T3
X3.3088Y-2.3494
X3.5762Y-2.3175
X4.0333Y-2.5435
X4.3006Y-2.5116
X4.7577Y-2.7376
X5.0251Y-2.7057
X5.665Y-4.24
X5.765Y-4.49
X6.915Y-2.04
X6.9796Y-4.0549
X7.165Y-1.94
X7.1952Y-3.8937
X7.5099Y-3.1364
X7.665Y-2.04
X7.704Y-3.8608
X7.7255Y-2.9751
X7.915Y-1.94
X7.9196Y-3.6995
X8.4285Y-3.6667
X8.6441Y-3.5054
T0
M30
