M48
; DRILL file {KiCad (5.1.10-1-10_14)} date Tuesday, August 10, 2021 at 05:18:54 PM
; FORMAT={-:-/ absolute / inch / decimal}
; #@! TF.CreationDate,2021-08-10T17:18:54+02:00
; #@! TF.GenerationSoftware,Kicad,Pcbnew,(5.1.10-1-10_14)
; #@! TF.FileFunction,NonPlated,1,2,NPTH
FMAT,2
INCH
T1C0.0709
T2C0.0866
T3C0.1570
%
G90
G05
T1
X3.2346Y-2.433
X3.621Y-2.5365
X3.9591Y-2.6271
X4.3454Y-2.7306
X4.6835Y-2.8212
X5.0699Y-2.9248
X5.565Y-4.19
X5.565Y-4.59
X6.865Y-2.14
X6.9572Y-4.1645
X7.265Y-2.14
X7.3435Y-4.061
X7.4875Y-3.2459
X7.615Y-2.14
X7.6816Y-3.9704
X7.8739Y-3.1424
X8.015Y-2.14
X8.068Y-3.8668
X8.4061Y-3.7763
X8.7924Y-3.6727
T2
X5.7812Y-2.085
T3
X3.4278Y-2.4848
X4.1523Y-2.6789
X4.8767Y-2.873
X5.565Y-4.39
X7.065Y-2.14
X7.1504Y-4.1127
X7.6807Y-3.1942
X7.815Y-2.14
X7.8748Y-3.9186
X8.5992Y-3.7245
T0
M30
