%TF.GenerationSoftware,KiCad,Pcbnew,(5.1.10-1-10_14)*%
%TF.CreationDate,2021-08-10T17:18:57+02:00*%
%TF.ProjectId,project,70726f6a-6563-4742-9e6b-696361645f70,rev?*%
%TF.SameCoordinates,Original*%
%TF.FileFunction,Soldermask,Top*%
%TF.FilePolarity,Negative*%
%FSLAX46Y46*%
G04 Gerber Fmt 4.6, Leading zero omitted, Abs format (unit mm)*
G04 Created by KiCad (PCBNEW (5.1.10-1-10_14)) date 2021-08-10 17:18:57*
%MOMM*%
%LPD*%
G01*
G04 APERTURE LIST*
%ADD10C,2.200000*%
%ADD11C,1.752600*%
%ADD12R,1.752600X1.752600*%
%ADD13C,2.286000*%
%ADD14O,1.700000X1.700000*%
%ADD15R,1.700000X1.700000*%
G04 APERTURE END LIST*
D10*
%TO.C,REF\u002A\u002A*%
X146843750Y-52959000D03*
%TD*%
D11*
%TO.C,U0*%
X158432500Y-48736250D03*
X143192500Y-76676250D03*
X158432500Y-51276250D03*
X158432500Y-53816250D03*
X158432500Y-56356250D03*
X158432500Y-58896250D03*
X158432500Y-61436250D03*
X158432500Y-63976250D03*
X158432500Y-66516250D03*
X158432500Y-69056250D03*
X158432500Y-71596250D03*
X158432500Y-74136250D03*
X158432500Y-76676250D03*
X143192500Y-74136250D03*
X143192500Y-71596250D03*
X143192500Y-69056250D03*
X143192500Y-66516250D03*
X143192500Y-63976250D03*
X143192500Y-61436250D03*
X143192500Y-58896250D03*
X143192500Y-56356250D03*
X143192500Y-53816250D03*
X143192500Y-51276250D03*
D12*
X143192500Y-48736250D03*
%TD*%
D13*
%TO.C,RIGHT*%
X214083172Y-93134715D03*
X219559401Y-89037762D03*
%TD*%
%TO.C,DOWN*%
X195682285Y-98065218D03*
X201158514Y-93968265D03*
%TD*%
%TO.C,UP*%
X190751782Y-79664331D03*
X196228011Y-75567378D03*
%TD*%
%TO.C,LEFT*%
X177281398Y-102995721D03*
X182757627Y-98898768D03*
%TD*%
%TO.C,ENTER*%
X194691000Y-51816000D03*
X201041000Y-49276000D03*
%TD*%
%TO.C,ESC*%
X175641000Y-51816000D03*
X181991000Y-49276000D03*
%TD*%
%TO.C,BOMB*%
X143891000Y-107696000D03*
X146431000Y-114046000D03*
%TD*%
%TO.C,RAPID*%
X120845498Y-69534576D03*
X127636527Y-68724625D03*
%TD*%
%TO.C,SHOOT*%
X102444611Y-64604073D03*
X109235640Y-63794122D03*
%TD*%
%TO.C,SLOW*%
X84043724Y-59673571D03*
X90834753Y-58863620D03*
%TD*%
D14*
%TO.C,J0*%
X167132000Y-50038000D03*
X164592000Y-50038000D03*
D15*
X162052000Y-50038000D03*
%TD*%
M02*
